<?xml version="1.0" standalone="no"?>
<!DOCTYPE svg PUBLIC "-//W3C//DTD SVG 20010904//EN"
 "http://www.w3.org/TR/2001/REC-SVG-20010904/DTD/svg10.dtd">
<svg version="1.0" xmlns="http://www.w3.org/2000/svg"
 width="512.000000pt" height="512.000000pt" viewBox="0 0 512.000000 512.000000"
 preserveAspectRatio="xMidYMid meet">
<metadata>
Created by potrace 1.14, written by Peter Selinger 2001-2017
</metadata>
<g transform="translate(0.000000,512.000000) scale(0.100000,-0.100000)"
fill="#000000" stroke="none">
<path d="M2613 5105 c-7 -8 -20 -30 -29 -49 -11 -21 -22 -32 -30 -29 -17 6
-19 -23 -3 -33 6 -3 8 -16 4 -28 -3 -11 -9 -37 -12 -56 -3 -19 -7 -37 -10 -40
-7 -7 -22 23 -16 33 3 6 -4 17 -16 26 -17 13 -21 23 -16 44 4 15 13 27 20 27
20 0 23 33 6 47 -11 8 -22 8 -34 1 -10 -5 -25 -7 -32 -4 -8 3 -16 0 -19 -7 -3
-9 -5 -8 -5 1 -1 7 -5 11 -10 8 -5 -3 -29 5 -53 19 -23 14 -54 24 -68 24 -21
-1 -20 -2 9 -11 35 -10 89 -45 83 -55 -2 -2 9 -14 23 -25 24 -19 95 -152 95
-179 0 -6 7 -9 15 -5 12 4 13 2 5 -13 -7 -14 -6 -22 5 -31 11 -9 12 -16 5 -25
-5 -6 -7 -15 -3 -18 3 -4 1 -7 -5 -7 -7 0 -12 7 -12 15 0 8 -5 15 -11 15 -6 0
-23 12 -37 28 -45 46 -111 94 -122 87 -5 -3 -10 -2 -10 2 0 5 -12 16 -27 25
l-28 18 43 -4 c23 -2 42 -1 42 3 0 9 -82 31 -114 31 -13 0 -50 12 -82 27 -43
20 -78 28 -126 30 -38 1 -68 -2 -68 -6 0 -5 17 -9 38 -9 52 1 101 -8 140 -25
l34 -14 -69 -6 c-62 -6 -196 -32 -233 -45 -8 -3 -19 -6 -25 -6 -18 -3 -80 -18
-87 -22 -4 -3 -5 -11 -2 -19 4 -8 10 -12 15 -9 5 3 6 11 2 17 -4 8 -1 7 9 -1
13 -11 23 -10 52 2 44 18 51 19 52 6 1 -5 2 -14 3 -19 0 -5 20 -8 44 -7 23 0
57 -3 76 -8 24 -6 32 -5 27 3 -4 6 -16 11 -27 11 -10 0 -19 6 -19 14 0 15 27
30 48 27 8 -1 24 5 37 13 18 12 25 12 28 3 4 -8 6 -8 6 2 1 11 4 11 16 1 9 -7
15 -8 15 -2 0 5 17 12 38 14 52 7 109 -31 247 -167 71 -69 95 -101 95 -126 0
-10 -3 -10 -12 -1 -7 7 -20 12 -30 12 -10 0 -27 9 -38 20 -11 11 -23 20 -26
20 -3 0 -26 14 -50 31 -25 17 -52 32 -60 33 -7 1 -25 13 -39 26 -21 20 -35 24
-76 22 -28 -1 -48 2 -45 7 8 12 -14 27 -46 33 -33 6 -40 -17 -9 -27 11 -3 36
-17 57 -31 20 -14 43 -23 50 -20 8 3 14 2 14 -3 0 -4 29 -27 64 -50 73 -47
128 -91 202 -162 40 -38 53 -58 58 -89 5 -35 10 -41 37 -47 25 -5 30 -10 25
-27 -3 -12 -6 -24 -6 -28 0 -11 -30 -10 -30 1 0 5 -7 12 -16 15 -14 6 -15 4
-4 -9 11 -13 10 -19 -4 -33 -10 -9 -16 -12 -15 -7 4 25 -3 35 -26 35 -15 0
-24 5 -23 13 2 6 -5 11 -14 11 -11 -1 -18 5 -18 17 0 11 -5 19 -11 19 -18 0
-39 28 -46 61 -5 25 -3 31 8 27 8 -3 13 -12 11 -21 -2 -13 4 -16 23 -15 32 3
34 34 3 44 -34 12 -41 11 -63 -8 -17 -16 -20 -16 -27 -3 -5 8 -18 20 -29 26
-18 9 -20 8 -14 -10 5 -18 3 -19 -32 -14 -36 6 -37 5 -23 -12 13 -17 13 -18 0
-11 -8 4 -7 1 3 -7 11 -9 14 -18 8 -21 -5 -4 -13 -1 -16 5 -4 5 -13 8 -21 5
-9 -3 -11 0 -7 12 3 9 3 14 -1 10 -5 -4 -17 2 -29 12 -26 25 -33 19 -13 -12 9
-14 13 -27 10 -31 -4 -3 10 -14 29 -23 34 -16 54 -41 42 -52 -3 -3 -14 3 -24
12 -19 17 -19 17 -14 -3 3 -12 1 -21 -6 -21 -6 0 -11 4 -11 9 0 11 -75 51 -84
45 -3 -2 -4 -1 -1 3 9 12 -17 33 -42 33 -13 0 -22 4 -18 10 3 5 -11 18 -32 29
-21 11 -32 20 -25 21 7 0 10 5 7 10 -4 6 -11 8 -16 5 -5 -4 -9 -2 -9 3 0 6 7
12 15 16 8 3 12 12 9 21 -10 26 22 52 61 49 26 -2 35 1 35 12 0 10 -6 14 -14
11 -17 -7 -36 11 -36 34 0 12 -6 16 -20 12 -11 -3 -17 -10 -13 -16 4 -6 0 -8
-11 -4 -10 4 -24 -1 -34 -11 -40 -40 -115 -87 -119 -74 -7 19 -23 14 -23 -8 0
-21 -15 -27 -25 -10 -3 6 -1 10 4 10 6 0 11 5 11 10 0 25 -35 3 -44 -27 -7
-21 -5 -22 23 -17 33 7 39 -3 21 -35 -8 -16 -5 -18 15 -18 14 0 22 3 19 8 -3
5 2 9 11 9 16 0 39 -45 30 -60 -3 -5 8 -16 25 -25 16 -8 30 -20 30 -25 0 -16
-20 -12 -26 5 -4 8 -13 15 -21 15 -9 0 -21 7 -27 16 -18 24 -82 35 -113 19
-15 -8 -30 -12 -35 -9 -5 3 -55 7 -111 7 -101 2 -101 2 -117 -26 -19 -34 -9
-43 60 -52 55 -8 89 -25 50 -25 -14 0 -38 -7 -54 -15 -15 -8 -36 -15 -46 -15
-19 0 -48 -14 -91 -43 -14 -9 -31 -34 -37 -56 -7 -21 -21 -46 -32 -56 -25 -23
-26 -42 0 -50 11 -3 20 -14 20 -23 0 -12 -3 -13 -12 -4 -20 20 -27 14 -25 -25
2 -20 9 -39 16 -41 9 -3 11 0 6 9 -5 8 -4 11 1 6 5 -5 10 -13 10 -18 1 -5 2
-13 3 -19 0 -5 5 -10 9 -10 4 0 6 16 4 36 -3 27 -1 35 8 29 9 -5 11 4 9 36 -3
36 0 44 15 47 10 2 16 0 14 -5 -3 -4 4 -17 15 -27 20 -19 20 -19 13 10 -4 16
-9 36 -12 45 -2 9 2 22 10 28 13 11 12 15 -5 32 -26 26 -24 37 9 52 15 6 32
18 38 26 7 9 18 12 29 7 11 -4 25 0 36 10 23 20 130 26 136 7 3 -7 14 -13 24
-13 11 0 17 -5 14 -10 -4 -6 -11 -7 -17 -4 -21 13 -27 -20 -6 -35 19 -13 23
-12 39 8 l18 22 53 -22 c29 -13 73 -36 97 -53 45 -32 79 -53 95 -59 5 -2 3
-13 -3 -25 -12 -23 -36 -20 -27 4 3 8 0 11 -10 7 -7 -3 -14 -1 -14 4 0 4 -9
14 -21 21 -19 12 -20 11 -14 -7 5 -16 2 -20 -15 -18 -23 1 -62 37 -41 37 7 0
9 5 6 10 -5 8 -11 7 -21 -1 -10 -8 -18 -9 -27 0 -8 6 -17 8 -21 4 -3 -4 -16
-7 -27 -8 -17 -1 -19 3 -14 22 3 13 1 23 -5 23 -6 0 -9 -4 -5 -10 3 -5 -7 -8
-25 -7 -16 1 -30 5 -30 10 0 4 -5 7 -11 7 -6 0 -9 -6 -6 -14 3 -8 -1 -17 -9
-20 -25 -10 -79 -7 -90 4 -7 7 -19 8 -37 1 -21 -8 -27 -8 -27 4 0 7 9 17 20
20 11 3 20 13 20 21 0 8 7 14 16 14 8 0 12 5 9 11 -8 12 -63 3 -83 -14 -9 -7
-10 -13 -2 -21 5 -5 10 -17 10 -25 0 -11 -4 -10 -15 5 -14 19 -14 19 -15 -3 0
-12 -4 -25 -10 -28 -5 -3 -10 -12 -10 -20 0 -10 13 -14 47 -12 49 2 67 -14 33
-29 -19 -8 -19 -11 -6 -29 14 -17 17 -18 26 -5 7 11 10 12 10 2 0 -8 -9 -16
-20 -19 -11 -3 -19 -10 -18 -17 1 -6 -6 -23 -16 -38 -13 -20 -15 -31 -7 -45 9
-16 10 -14 11 12 0 20 9 36 25 48 14 10 25 13 25 7 0 -6 5 -8 10 -5 16 10 12
63 -6 73 -15 8 -15 11 1 29 11 13 25 19 38 15 13 -3 25 2 33 13 13 18 14 18
14 -3 0 -14 7 -22 18 -23 9 -1 22 -2 27 -4 6 -1 14 -3 19 -3 5 -1 3 -9 -4 -17
-10 -12 -10 -21 0 -45 14 -34 8 -60 -15 -60 -8 0 -15 -7 -15 -15 0 -9 -9 -15
-24 -15 -13 0 -26 -5 -28 -12 -2 -6 -12 5 -21 25 -19 40 -51 47 -53 11 -1 -16
3 -20 16 -17 14 4 17 -3 16 -46 -1 -28 -6 -51 -11 -51 -6 0 -11 -9 -12 -20 -2
-18 3 -19 45 -13 26 3 50 10 53 16 4 5 9 3 12 -4 3 -9 10 -2 18 19 8 19 19 30
26 28 7 -3 13 1 13 9 0 29 29 14 54 -28 18 -31 23 -51 18 -68 -7 -25 -32 -38
-32 -17 0 6 -3 8 -6 5 -10 -10 16 -36 30 -31 7 3 18 -2 25 -9 9 -12 8 -15 -5
-13 -9 0 -18 -7 -20 -18 -1 -11 -5 -31 -8 -45 -3 -14 -3 -20 0 -13 3 6 10 9
16 6 6 -4 8 2 3 17 -5 19 -4 21 4 9 6 -8 11 -24 12 -35 0 -15 4 -11 15 13 8
18 11 38 8 44 -5 7 -2 8 6 3 10 -6 12 -1 8 18 -3 15 -2 24 2 22 8 -5 42 69 45
97 1 9 8 30 14 46 7 16 11 47 9 68 -3 34 -7 39 -28 41 -14 0 -37 -5 -52 -12
-19 -9 -27 -10 -25 -2 1 7 16 18 32 25 17 8 37 17 45 21 8 4 41 7 73 6 37 -1
61 3 68 12 14 16 41 17 56 2 6 -6 21 -9 33 -7 23 3 22 3 -8 36 -38 41 -19 42
24 1 28 -27 35 -29 54 -19 15 8 20 18 17 31 -8 29 9 32 27 4 20 -31 23 -31 90
1 l54 26 -21 21 c-12 12 -25 21 -29 20 -5 -2 -7 0 -7 5 4 21 -3 32 -19 32 -10
0 -26 15 -37 33 -10 17 -23 35 -29 39 -6 4 -5 12 3 22 12 14 10 16 -7 16 -15
0 -20 -5 -16 -15 4 -8 2 -15 -4 -15 -17 0 -23 31 -9 45 10 9 18 10 32 3 13 -8
16 -7 11 1 -11 17 3 13 25 -8 12 -11 18 -24 15 -29 -10 -17 65 -101 91 -102 7
0 17 -9 23 -20 6 -11 16 -20 22 -20 7 0 7 4 0 13 -8 10 -6 16 9 26 25 15 37 7
19 -14 -17 -21 -4 -19 28 4 15 10 45 24 67 32 43 14 67 29 47 29 -7 0 -12 7
-12 15 0 8 -9 15 -19 15 -11 0 -22 4 -26 9 -9 16 13 23 35 11 17 -9 20 -8 20
10 0 11 5 20 10 20 13 0 13 -27 0 -35 -13 -8 -2 -32 15 -32 8 0 12 4 9 8 -2 4
3 14 12 23 8 9 12 20 9 26 -3 5 3 10 14 10 14 0 21 -6 21 -19 0 -22 16 -36 24
-22 4 5 23 7 44 5 30 -4 34 -3 20 6 -19 12 -23 46 -9 68 6 10 10 10 21 -3 10
-12 10 -15 -4 -15 -9 0 -16 -4 -16 -10 0 -6 10 -5 25 2 14 6 25 16 25 21 0 14
91 97 107 97 7 0 13 4 13 9 0 4 12 6 26 3 20 -4 25 -1 22 9 -3 8 -13 13 -23
12 -13 -1 -11 5 11 28 15 16 34 29 41 29 12 0 17 13 14 33 -1 5 7 6 18 2 14
-4 26 1 38 15 10 12 26 31 36 42 9 12 17 29 17 40 0 20 16 24 23 6 3 -8 6 -6
6 4 1 10 17 33 37 53 19 20 40 49 46 65 5 17 14 28 19 25 4 -3 6 -12 3 -19 -3
-8 0 -17 6 -21 7 -4 14 1 17 13 3 12 15 22 27 24 16 2 20 9 18 30 -3 25 -1 26
25 19 15 -4 34 -6 42 -3 8 3 12 -1 9 -9 -3 -8 -13 -13 -22 -12 -10 0 -14 -2
-11 -5 4 -4 14 -7 23 -8 46 -3 52 -5 52 -18 0 -8 10 -22 22 -30 27 -19 62 -4
53 24 -8 25 11 35 31 16 8 -9 23 -16 32 -16 13 0 11 5 -8 20 -14 11 -28 20
-32 20 -5 0 -7 5 -5 10 1 6 -9 16 -23 23 -14 7 -24 21 -23 31 0 11 -4 15 -12
12 -7 -2 -16 2 -19 11 -5 11 -10 12 -19 5 -15 -13 -31 -4 -40 21 -4 11 -16 21
-26 24 -11 3 -22 14 -24 25 -3 11 -9 18 -14 15 -4 -2 -21 4 -38 14 -93 57
-129 71 -119 45 4 -12 -3 -12 -53 0 -32 8 -86 14 -121 14 -61 0 -63 -1 -73
-30 -9 -25 -14 -28 -30 -19 -11 5 -25 7 -32 3 -6 -4 -1 5 12 19 24 27 24 27 3
27 -11 0 -23 -4 -27 -9 -3 -5 -22 -7 -42 -4 -24 4 -34 3 -30 -5 4 -5 17 -8 28
-5 19 5 20 4 10 -16 -7 -11 -10 -21 -7 -21 3 0 -5 -11 -17 -24 -36 -38 -137
-254 -137 -290 0 -9 -3 -15 -7 -15 -27 4 -34 -2 -19 -16 14 -14 14 -18 -2 -34
-26 -28 -41 -3 -32 54 4 25 3 48 -1 50 -4 3 -3 20 2 38 5 18 5 46 1 62 -10 37
-5 65 12 65 7 0 13 7 13 15 0 9 -6 14 -13 11 -7 -3 -18 3 -26 12 -11 15 -11
15 2 5 12 -9 21 -6 43 11 25 20 26 24 12 30 -11 4 -23 0 -32 -11 -14 -17 -14
-17 -7 2 14 41 15 71 2 82 -9 8 -16 7 -25 -2z m395 -7 c-2 -8 6 -12 20 -10 12
2 22 -2 22 -8 0 -7 6 -8 18 -2 19 10 42 5 42 -9 0 -5 -8 -9 -17 -10 -15 0 -15
-2 2 -8 13 -6 23 -4 28 5 11 19 27 18 27 -1 0 -10 10 -15 31 -15 28 0 30 -2
18 -17 -8 -9 -9 -14 -2 -10 19 12 41 -3 36 -24 -6 -23 12 -26 21 -3 8 22 16
13 26 -28 8 -30 9 -31 15 -11 4 13 11 21 15 18 11 -7 -12 -55 -27 -55 -18 0
-27 -21 -13 -30 10 -6 10 -12 -2 -29 -13 -19 -17 -19 -27 -7 -7 8 -9 21 -5 27
4 7 3 10 -2 7 -5 -3 -17 -8 -27 -11 -15 -6 -16 -10 -7 -27 9 -17 14 -19 26 -9
19 16 18 -2 -2 -27 -8 -10 -13 -14 -10 -7 4 7 -7 11 -32 12 -87 3 -82 1 -76
30 3 14 7 32 10 39 2 6 -1 12 -7 12 -15 0 6 33 23 36 11 1 13 -5 10 -25 -4
-22 -3 -24 10 -14 8 7 17 11 20 8 3 -3 11 2 19 11 11 13 11 15 -3 12 -9 -1
-16 2 -15 7 1 6 6 9 12 7 6 -2 7 0 2 4 -4 4 0 15 9 25 9 10 13 23 9 28 -11 19
-23 12 -18 -9 4 -16 0 -20 -20 -20 -14 0 -32 -3 -40 -6 -12 -4 -14 2 -12 29 2
25 -1 34 -12 34 -10 0 -13 -8 -10 -23 5 -26 -16 -39 -32 -20 -6 7 -8 15 -5 18
3 3 0 9 -6 13 -6 3 -9 3 -8 -2 3 -11 -32 -63 -43 -63 -5 0 -8 5 -6 11 1 6 -4
14 -10 16 -7 3 -13 0 -13 -7 0 -7 -6 -8 -18 -1 -13 7 -23 6 -30 -1 -16 -16
-25 -4 -17 21 3 12 11 18 17 15 7 -4 8 -2 4 4 -4 7 -2 12 3 12 6 0 10 5 9 12
-2 7 4 12 12 13 8 0 14 9 13 19 -1 11 8 27 20 37 26 22 28 22 25 7z m65 5 c-7
-2 -19 -2 -25 0 -7 3 -2 5 12 5 14 0 19 -2 13 -5z m172 -23 c3 -6 -1 -7 -9 -4
-18 7 -21 14 -7 14 6 0 13 -4 16 -10z m-45 -10 c8 -5 11 -12 7 -16 -4 -4 -15
0 -24 9 -18 18 -8 23 17 7z m-726 -56 c4 -10 1 -14 -6 -12 -15 5 -23 28 -10
28 5 0 13 -7 16 -16z m816 12 c0 -3 -4 -8 -10 -11 -5 -3 -10 -1 -10 4 0 6 5
11 10 11 6 0 10 -2 10 -4z m-411 -53 c-1 -5 0 -10 1 -13 8 -21 5 -50 -7 -50
-7 0 -22 -15 -33 -32 -13 -21 -20 -27 -20 -16 0 9 4 19 9 22 14 9 20 60 9 74
-8 9 -7 11 5 7 8 -4 18 -2 22 4 7 13 16 15 14 4z m461 -28 c-5 -14 -7 -31 -4
-39 3 -8 -5 -21 -17 -30 -33 -23 -42 0 -13 31 13 14 23 28 22 32 -2 17 3 31
12 31 6 0 6 -9 0 -25z m-245 5 c3 -5 -1 -10 -10 -10 -9 0 -13 5 -10 10 3 6 8
10 10 10 2 0 7 -4 10 -10z m-482 -15 c-3 -9 -8 -14 -10 -11 -3 3 -2 9 2 15 9
16 15 13 8 -4z m313 -23 c-8 -9 -18 -13 -22 -10 -8 9 19 37 29 31 5 -3 2 -12
-7 -21z m484 8 c0 -5 -5 -10 -11 -10 -5 0 -7 5 -4 10 3 6 8 10 11 10 2 0 4 -4
4 -10z m-320 -8 c0 -5 -11 -14 -25 -20 -24 -11 -25 -10 -15 8 10 20 40 28 40
12z m-1125 -32 c-5 -15 -2 -20 11 -20 10 0 15 -2 12 -5 -3 -3 -19 -2 -36 1
l-32 7 21 18 c28 24 32 24 24 -1z m635 -4 c0 -3 -4 -8 -10 -11 -5 -3 -10 -1
-10 4 0 6 5 11 10 11 6 0 10 -2 10 -4z m489 -15 c9 -6 11 -14 4 -26 -10 -18
-15 -15 -26 18 -7 19 0 21 22 8z m436 -1 c3 -5 1 -10 -4 -10 -6 0 -11 5 -11
10 0 6 2 10 4 10 3 0 8 -4 11 -10z m-462 -60 c-3 -11 -8 -19 -12 -18 -25 3
-33 -3 -22 -16 9 -11 9 -16 0 -22 -7 -4 -9 -3 -5 4 10 16 -18 21 -30 4 -8 -11
-11 -5 -12 29 -1 39 1 41 10 22 14 -29 26 -29 39 1 13 28 39 24 32 -4z m-250
-30 c-17 -36 -25 -38 -21 -7 4 29 17 49 28 42 5 -3 2 -19 -7 -35z m124 15 c5
-4 2 -5 -4 -1 -9 5 -13 0 -13 -13 0 -12 -4 -21 -9 -21 -9 0 -21 24 -21 41 0
11 36 6 47 -6z m191 -5 c3 -8 0 -10 -7 -6 -7 4 -19 2 -28 -6 -15 -12 -15 -11
-4 10 13 24 32 25 39 2z m-203 -50 c3 -5 1 -10 -4 -10 -6 0 -11 5 -11 10 0 6
2 10 4 10 3 0 8 -4 11 -10z m41 -35 c-3 -9 -11 -13 -16 -10 -8 5 -7 11 1 21
14 18 24 11 15 -11z m64 15 c0 -5 -4 -10 -10 -10 -5 0 -10 5 -10 10 0 6 5 10
10 10 6 0 10 -4 10 -10z m-93 -36 c-3 -3 -12 -4 -19 -1 -8 3 -5 6 6 6 11 1 17
-2 13 -5z m23 -18 c-10 -13 -40 -12 -40 1 0 3 7 3 15 -1 8 -3 15 -1 15 4 0 6
5 10 11 10 8 0 8 -4 -1 -14z m138 -16 c-7 -11 -18 -20 -25 -20 -9 0 -7 6 5 19
23 26 35 26 20 1z m-1092 -25 c-2 -16 -9 -19 -29 -12 -9 3 -9 8 2 20 15 19 30
14 27 -8z m1004 21 c0 -3 -4 -8 -10 -11 -5 -3 -10 -1 -10 4 0 6 5 11 10 11 6
0 10 -2 10 -4z m-191 -75 c-12 -17 -31 -31 -41 -31 -25 0 -23 7 15 44 39 38
58 30 26 -13z m-836 30 c17 -2 5 -42 -15 -51 -13 -5 -17 -9 -10 -9 6 -1 12 -6
12 -12 0 -8 -5 -7 -15 1 -9 7 -13 15 -10 18 3 3 0 11 -5 17 -14 17 -2 44 18
40 9 -2 20 -4 25 -4z m747 -1 c0 -5 -4 -10 -10 -10 -5 0 -10 5 -10 10 0 6 5
10 10 10 6 0 10 -4 10 -10z m-46 -79 c3 -5 -1 -14 -9 -21 -13 -10 -15 -9 -15
9 0 21 14 28 24 12z m51 -41 c-3 -11 -2 -20 4 -20 5 0 9 -9 8 -20 -2 -28 -39
-20 -44 10 -5 33 3 50 22 50 12 0 15 -6 10 -20z m55 -4 c0 -2 -8 -10 -17 -17
-16 -13 -17 -12 -4 4 13 16 21 21 21 13z m-817 -20 c6 -14 -21 -32 -31 -21 -3
3 0 5 6 5 6 0 9 7 6 15 -4 8 -2 15 4 15 5 0 12 -6 15 -14z m337 -1 c0 -8 -4
-15 -10 -15 -5 0 -10 7 -10 15 0 8 5 15 10 15 6 0 10 -7 10 -15z m75 -5 c3 -5
-3 -10 -14 -10 -12 0 -21 5 -21 10 0 6 6 10 14 10 8 0 18 -4 21 -10z m425 -15
c0 -20 -20 -29 -33 -16 -8 8 -8 11 1 11 7 0 11 3 11 8 -3 16 2 23 11 17 6 -3
10 -12 10 -20z m-1150 -15 c0 -5 -4 -10 -10 -10 -5 0 -10 5 -10 10 0 6 5 10
10 10 6 0 10 -4 10 -10z m74 -26 c-12 -17 -19 -21 -24 -13 -4 6 -13 8 -19 5
-18 -12 -12 -23 15 -30 15 -4 24 -10 21 -13 -4 -3 -43 7 -88 23 -66 23 -77 30
-58 34 13 4 26 4 29 0 3 -3 12 -5 20 -5 8 0 20 -6 26 -14 9 -12 12 -9 18 12 5
23 12 27 41 27 l35 0 -16 -26z m126 22 c0 -11 -19 -15 -25 -6 -3 5 1 10 9 10
9 0 16 -2 16 -4z m-65 -16 c3 -5 -1 -10 -10 -10 -9 0 -13 5 -10 10 3 6 8 10
10 10 2 0 7 -4 10 -10z m960 -23 c0 -19 -4 -23 -20 -20 -16 4 -17 3 -5 -6 8
-5 11 -13 7 -18 -9 -8 -27 15 -27 35 0 7 10 17 23 22 12 5 22 9 22 9 0 1 0
-10 0 -22z m-908 -2 c8 -23 -4 -30 -21 -12 -8 8 -12 17 -9 21 11 11 23 7 30
-9z m129 -42 c-7 -7 -26 7 -26 19 0 6 6 6 15 -2 9 -7 13 -15 11 -17z m60 -21
c8 -7 21 -12 30 -10 10 2 18 -4 19 -14 2 -11 -2 -15 -13 -11 -55 17 -80 42
-65 66 4 7 8 6 11 -3 3 -8 11 -21 18 -28z m-222 -1 c4 -5 -3 -7 -14 -4 -23 6
-26 13 -6 13 8 0 17 -4 20 -9z m81 -41 c8 -13 -5 -13 -25 0 -13 8 -13 10 2 10
9 0 20 -4 23 -10z m146 -23 c-10 -9 -11 -8 -5 6 3 10 9 15 12 12 3 -3 0 -11
-7 -18z m119 -28 c0 -11 -4 -17 -10 -14 -5 3 -10 13 -10 21 0 8 -7 15 -15 15
-8 1 -19 3 -25 4 -5 1 -13 3 -17 4 -5 1 -2 5 6 10 20 13 71 -16 71 -40z m-108
-35 c21 -15 36 -29 34 -31 -4 -5 -86 46 -86 53 0 9 17 2 52 -22z m-629 -15
c-4 -13 -9 -17 -15 -11 -11 11 -3 32 12 32 4 0 6 -9 3 -21z m781 -5 c3 -8 2
-12 -4 -9 -6 3 -10 10 -10 16 0 14 7 11 14 -7z m-394 -56 c12 8 19 9 16 4 -9
-15 20 -22 33 -9 9 9 14 9 20 -1 4 -7 15 -10 26 -6 12 5 16 3 14 -5 -3 -7 -29
-21 -58 -32 -47 -16 -59 -17 -91 -6 -20 6 -37 15 -38 20 -6 22 0 37 13 37 8 0
15 5 15 12 0 6 6 3 14 -8 13 -17 18 -17 36 -6z m148 -3 c-3 -3 -9 2 -12 12 -6
14 -5 15 5 6 7 -7 10 -15 7 -18z m-144 -106 c-8 -14 -24 -10 -24 6 0 9 6 12
15 9 8 -4 12 -10 9 -15z m-61 -24 c-3 -8 -9 -15 -14 -15 -10 0 -12 24 -3 33
11 11 24 -3 17 -18z m-36 -47 c-3 -8 -6 -5 -6 6 -1 11 2 17 5 13 3 -3 4 -12 1
-19z m-27 -18 c0 -5 -2 -10 -4 -10 -3 0 -8 5 -11 10 -3 6 -1 10 4 10 6 0 11
-4 11 -10z"/>
<path d="M2974 5028 c-4 -6 -2 -14 4 -16 7 -2 10 -8 6 -13 -3 -5 -1 -9 4 -9 5
0 10 11 10 25 0 27 -12 33 -24 13z"/>
<path d="M3217 4904 c3 -7 9 -14 14 -14 14 0 10 17 -5 23 -10 4 -13 1 -9 -9z"/>
<path d="M3130 4846 c0 -23 20 -30 36 -12 8 9 11 14 8 11 -4 -2 -15 0 -25 6
-15 7 -19 6 -19 -5z"/>
<path d="M2670 5049 c0 -5 5 -7 10 -4 6 3 10 8 10 11 0 2 -4 4 -10 4 -5 0 -10
-5 -10 -11z"/>
<path d="M1616 5021 c5 -5 20 -12 34 -15 24 -7 24 -6 6 8 -21 17 -57 23 -40 7z"/>
<path d="M555 5010 c-3 -5 1 -10 9 -10 9 0 16 5 16 10 0 6 -4 10 -9 10 -6 0
-13 -4 -16 -10z"/>
<path d="M1432 5008 c-7 -7 -12 -17 -12 -22 0 -6 5 -3 11 7 11 18 54 23 64 7
3 -5 11 -10 18 -10 6 0 2 7 -9 15 -23 18 -56 19 -72 3z"/>
<path d="M1354 4908 c60 -61 122 -145 113 -154 -2 -2 -26 0 -53 5 -115 23
-241 18 -367 -14 -53 -13 -64 -13 -103 0 -46 16 -200 21 -221 7 -6 -4 35 -7
90 -7 72 0 111 -5 132 -16 27 -14 36 -13 100 4 147 39 382 30 460 -18 14 -8
36 -22 50 -31 l26 -15 -26 -30 c-26 -32 -25 -61 1 -35 16 16 48 11 38 -6 -4
-6 -10 -5 -15 3 -5 8 -9 12 -10 9 0 -3 -2 -14 -4 -25 -2 -11 -9 -21 -15 -23
-5 -2 -8 -8 -4 -13 3 -5 2 -9 -3 -9 -4 0 -14 -4 -21 -8 -14 -9 -6 -42 10 -42
6 0 7 7 4 16 -5 12 -2 15 10 10 8 -3 22 1 30 9 20 20 31 19 37 -2 4 -15 6 -15
12 5 8 25 25 30 25 7 0 -8 4 -15 9 -15 4 0 7 14 5 30 -4 29 8 40 21 20 3 -5
17 -10 31 -10 13 0 24 -4 24 -10 0 -5 5 -10 11 -10 7 0 9 10 5 24 -5 21 -2 25
21 28 20 2 29 9 31 26 3 20 0 22 -22 16 -30 -7 -56 9 -56 35 0 10 8 17 20 17
13 0 20 -6 18 -16 -2 -8 2 -16 7 -17 6 -2 10 1 10 6 0 5 3 12 7 16 4 4 5 12 2
18 -3 9 26 12 103 11 152 0 163 -2 163 -19 0 -13 4 -14 21 -5 11 7 27 9 34 6
7 -2 26 -1 42 3 l28 8 -34 18 c-95 49 -221 80 -221 54 0 -5 5 -7 10 -4 6 4 17
1 25 -5 8 -6 19 -9 24 -5 17 10 85 -13 98 -33 11 -19 9 -19 -55 -5 -37 8 -104
15 -148 17 -45 2 -86 6 -92 10 -6 3 -51 -9 -100 -29 -102 -40 -102 -40 -102
-20 0 8 -9 19 -19 25 -25 13 -34 13 -26 -1 4 -6 -2 -5 -14 3 -24 15 -27 24 -8
31 9 3 9 7 -1 20 -8 9 -20 13 -28 10 -8 -3 -14 1 -14 10 0 26 -154 177 -180
177 -4 0 21 -28 54 -62z m351 -268 c3 -6 -1 -7 -9 -4 -18 7 -21 14 -7 14 6 0
13 -4 16 -10z"/>
<path d="M2385 4900 c3 -5 11 -10 16 -10 6 0 7 5 4 10 -3 6 -11 10 -16 10 -6
0 -7 -4 -4 -10z"/>
<path d="M890 4875 c19 -7 44 -14 55 -14 11 0 0 7 -25 15 -57 17 -77 17 -30
-1z"/>
<path d="M1710 4840 c-12 -8 -11 -10 8 -10 12 0 22 5 22 10 0 13 -11 13 -30 0z"/>
<path d="M418 4823 c7 -3 16 -2 19 1 4 3 -2 6 -13 5 -11 0 -14 -3 -6 -6z"/>
<path d="M1850 4820 c0 -5 4 -10 9 -10 6 0 13 5 16 10 3 6 -1 10 -9 10 -9 0
-16 -4 -16 -10z"/>
<path d="M363 4810 c-34 -14 -28 -21 7 -9 17 6 30 13 30 15 0 6 -12 4 -37 -6z"/>
<path d="M292 4779 c-38 -15 -132 -117 -131 -142 l1 -22 6 22 c8 25 46 69 88
100 16 12 38 29 49 37 23 18 20 19 -13 5z"/>
<path d="M3535 4757 c-21 -12 -32 -57 -15 -57 9 0 15 22 11 43 -1 5 3 6 9 2
13 -8 13 -48 0 -61 -12 -12 -2 -46 11 -38 5 3 7 10 4 15 -4 5 -1 9 6 9 7 0 10
-13 7 -35 -3 -23 1 -36 10 -40 7 -2 10 0 7 5 -3 6 -1 10 4 10 14 0 14 -17 1
-25 -6 -4 -8 -10 -5 -15 3 -5 1 -11 -5 -15 -6 -4 -8 -11 -5 -16 4 -5 15 -3 28
6 28 19 38 19 30 -1 -4 -10 0 -20 10 -26 9 -4 14 -15 11 -23 -4 -8 -1 -15 7
-15 7 0 10 3 6 6 -3 3 6 19 21 36 15 16 27 35 28 41 2 28 5 31 14 17 12 -19
25 -6 16 16 -6 16 -8 16 -25 0 -17 -16 -19 -15 -24 14 -4 18 -13 30 -23 30 -8
0 -14 6 -11 13 2 6 16 11 31 10 26 -2 27 -1 13 20 -14 22 -63 55 -82 56 -5 0
5 -9 23 -20 17 -12 32 -25 32 -29 0 -4 -18 -10 -40 -12 -35 -3 -39 -1 -34 15
5 16 2 18 -15 12 -23 -7 -26 1 -11 25 5 9 5 19 -2 27 -13 16 -17 16 -43 0z
m156 -167 c6 -12 2 -16 -17 -16 -13 0 -24 1 -24 2 0 2 5 15 11 31 8 20 13 24
17 13 2 -8 8 -22 13 -30z"/>
<path d="M576 4735 c4 -8 11 -15 16 -15 6 0 5 6 -2 15 -7 8 -14 15 -16 15 -2
0 -1 -7 2 -15z"/>
<path d="M628 4718 c9 -9 15 -9 24 0 9 9 7 12 -12 12 -19 0 -21 -3 -12 -12z"/>
<path d="M3240 4720 c0 -6 7 -10 15 -10 8 0 15 2 15 4 0 2 -7 6 -15 10 -8 3
-15 1 -15 -4z"/>
<path d="M2211 4666 c2 -2 27 -21 54 -41 28 -21 61 -51 74 -67 13 -15 30 -28
38 -28 23 0 -25 60 -61 76 -17 8 -44 25 -61 39 -16 14 -34 25 -39 25 -5 0 -7
-2 -5 -4z"/>
<path d="M1834 4619 c-3 -6 -2 -15 3 -20 5 -5 9 -1 10 11 2 22 -2 25 -13 9z"/>
<path d="M3298 4598 c-2 -6 -13 -12 -24 -13 -58 -6 -95 -18 -90 -30 2 -7 -1
-20 -7 -29 -10 -14 -12 -11 -12 19 0 21 6 40 15 45 12 8 11 10 -7 10 -12 0
-25 -5 -28 -10 -4 -6 -10 -8 -15 -5 -15 9 -70 -24 -70 -41 0 -14 3 -14 15 -4
9 7 18 11 21 8 2 -3 -7 -13 -21 -22 -22 -14 -25 -15 -25 -1 0 18 -8 18 -37 2
-21 -12 -21 -13 -4 -34 19 -23 58 -32 79 -19 8 5 19 3 25 -4 9 -9 8 -14 -5
-24 -10 -7 -18 -16 -18 -20 0 -8 60 33 78 54 11 13 12 12 6 -9 -5 -21 -4 -23
16 -18 17 4 20 2 16 -10 -5 -12 -1 -14 21 -7 16 4 38 7 51 7 12 -1 22 3 22 8
0 5 5 9 11 9 6 0 9 -7 5 -15 -3 -9 0 -15 9 -15 8 0 15 5 15 11 0 6 7 9 15 5 8
-3 15 -2 15 3 0 5 11 7 25 6 18 -3 28 4 39 26 8 16 11 29 6 29 -4 0 -10 7 -14
15 -4 12 0 14 22 9 15 -4 29 -11 30 -16 2 -4 11 -8 20 -8 15 1 15 2 0 11 -10
5 -18 17 -18 24 0 20 10 19 26 -2 7 -10 16 -14 20 -10 5 4 -5 18 -21 31 -27
22 -32 23 -57 10 -23 -12 -29 -12 -42 2 -9 8 -16 19 -16 24 0 6 -11 5 -26 0
-16 -7 -32 -7 -44 0 -13 7 -20 6 -22 -2z m87 -77 c-3 -6 -11 -11 -17 -11 -6 0
-6 6 2 15 14 17 26 13 15 -4z m-125 -7 c0 -8 -5 -12 -10 -9 -6 4 -8 11 -5 16
9 14 15 11 15 -7z m80 -29 c-7 -8 -20 -15 -29 -14 -13 0 -14 1 -1 6 8 3 19 12
23 20 5 8 11 12 14 9 3 -3 0 -12 -7 -21z"/>
<path d="M2106 4592 c-7 -12 29 -31 44 -22 10 6 8 11 -8 19 -25 13 -29 14 -36
3z"/>
<path d="M151 4563 c-2 -48 39 -127 56 -110 3 4 -3 18 -16 30 -12 13 -25 44
-30 68 -8 39 -9 40 -10 12z"/>
<path d="M2085 4560 c3 -5 12 -10 19 -10 8 0 16 -10 19 -22 4 -12 9 -20 12
-16 11 11 -18 58 -37 58 -11 0 -16 -4 -13 -10z"/>
<path d="M2184 4545 c11 -8 23 -15 28 -15 4 0 8 -7 8 -15 0 -17 16 -20 25 -5
3 5 -9 19 -27 30 -38 23 -62 27 -34 5z"/>
<path d="M3536 4534 c-9 -24 -7 -28 9 -14 17 14 20 30 6 30 -5 0 -12 -7 -15
-16z"/>
<path d="M3713 4530 c-31 -13 -29 -26 7 -39 17 -5 30 -15 30 -20 0 -16 19 -13
37 5 14 13 14 17 2 25 -8 5 -20 9 -26 9 -7 0 -12 5 -10 11 3 16 -14 19 -40 9z"/>
<path d="M3485 4490 c-3 -5 -2 -10 4 -10 5 0 13 5 16 10 3 6 2 10 -4 10 -5 0
-13 -4 -16 -10z"/>
<path d="M50 4480 c8 -5 20 -10 25 -10 6 0 3 5 -5 10 -8 5 -19 10 -25 10 -5 0
-3 -5 5 -10z"/>
<path d="M2125 4480 c-3 -5 -1 -10 4 -10 6 0 11 5 11 10 0 6 -2 10 -4 10 -3 0
-8 -4 -11 -10z"/>
<path d="M3495 4461 c-9 -16 9 -20 23 -5 10 12 10 14 -2 14 -8 0 -17 -4 -21
-9z"/>
<path d="M3537 4445 c-4 -8 -2 -17 3 -20 6 -4 10 3 10 14 0 25 -6 27 -13 6z"/>
<path d="M5028 4453 c6 -2 18 -2 25 0 6 3 1 5 -13 5 -14 0 -19 -2 -12 -5z"/>
<path d="M3400 4441 c0 -5 5 -13 10 -16 6 -3 10 -2 10 4 0 5 -4 13 -10 16 -5
3 -10 2 -10 -4z"/>
<path d="M3751 4426 c-7 -8 -8 -17 -3 -20 6 -3 12 3 15 14 6 24 4 25 -12 6z"/>
<path d="M1448 4423 c6 -2 18 -2 25 0 6 3 1 5 -13 5 -14 0 -19 -2 -12 -5z"/>
<path d="M1385 4410 c-3 -6 1 -7 9 -4 18 7 21 14 7 14 -6 0 -13 -4 -16 -10z"/>
<path d="M3050 4405 c0 -8 4 -15 10 -15 5 0 7 7 4 15 -4 8 -8 15 -10 15 -2 0
-4 -7 -4 -15z"/>
<path d="M3269 4399 c-8 -17 -8 -20 2 -17 7 2 13 12 15 21 3 23 -3 21 -17 -4z"/>
<path d="M3415 4400 c-3 -5 -2 -10 4 -10 5 0 13 5 16 10 3 6 2 10 -4 10 -5 0
-13 -4 -16 -10z"/>
<path d="M3690 4388 c0 -4 1 -9 2 -10 1 -2 -4 -13 -10 -25 -16 -29 -2 -36 26
-13 28 23 30 59 2 57 -11 -1 -20 -5 -20 -9z"/>
<path d="M2900 4382 c0 -5 6 -12 14 -15 8 -3 19 -14 25 -25 9 -17 6 -18 -52
-15 l-62 4 40 -22 c54 -29 111 -84 143 -139 14 -25 29 -47 33 -50 4 -3 9 -19
12 -35 3 -21 9 -30 23 -30 15 0 20 -10 27 -50 4 -27 8 -60 9 -72 0 -18 4 -20
22 -13 14 5 20 15 19 29 -2 12 1 21 7 21 19 0 19 -20 0 -52 -17 -29 -19 -78
-3 -78 31 0 57 50 34 64 -10 7 -3 45 12 64 5 7 11 30 13 52 3 40 -1 44 -42 43
-6 0 -11 12 -11 28 0 15 4 26 9 23 4 -3 5 3 1 12 -4 12 -8 14 -11 6 -3 -10 -7
-10 -18 -1 -18 15 -19 53 -1 42 14 -8 -19 44 -42 67 -8 8 -24 20 -35 26 -12 6
-20 16 -19 22 2 6 -3 9 -11 6 -7 -3 -16 2 -19 10 -4 9 -13 16 -22 16 -8 0 -33
16 -55 36 -22 20 -40 32 -40 26z m260 -342 c0 -5 -4 -10 -10 -10 -5 0 -10 5
-10 10 0 6 5 10 10 10 6 0 10 -4 10 -10z"/>
<path d="M3460 4381 c0 -13 29 -41 42 -41 7 0 6 -5 -2 -14 -8 -11 -9 -20 -1
-33 10 -17 10 -17 11 0 0 9 5 17 11 17 6 0 9 -7 5 -15 -6 -16 -1 -17 27 -6 17
6 17 8 -2 30 -12 13 -21 28 -21 33 0 4 -9 8 -19 8 -11 0 -27 7 -35 16 -9 8
-16 11 -16 5z"/>
<path d="M3568 4365 c-4 -17 1 -34 14 -48 l20 -22 -7 25 c-4 14 -8 33 -9 42
-4 29 -13 30 -18 3z"/>
<path d="M3320 4370 c0 -5 5 -10 10 -10 6 0 10 5 10 10 0 6 -4 10 -10 10 -5 0
-10 -4 -10 -10z"/>
<path d="M3540 4369 c0 -5 5 -7 10 -4 6 3 10 8 10 11 0 2 -4 4 -10 4 -5 0 -10
-5 -10 -11z"/>
<path d="M3616 4354 c-4 -9 -4 -19 -1 -22 2 -3 7 3 11 12 4 9 4 19 1 22 -2 3
-7 -3 -11 -12z"/>
<path d="M3751 4347 c-8 -11 -6 -20 9 -37 11 -13 20 -26 20 -30 0 -4 11 -12
25 -18 23 -11 24 -10 21 25 -2 23 -11 43 -25 55 -28 22 -35 22 -50 5z"/>
<path d="M4210 4354 c1 -12 39 -61 40 -51 0 5 -9 20 -20 34 -11 14 -20 22 -20
17z"/>
<path d="M270 4325 c-8 -10 -32 -29 -53 -42 -55 -35 -60 -57 -48 -206 5 -71 8
-134 5 -141 -2 -7 -17 -20 -33 -29 -34 -20 -44 -49 -26 -74 8 -10 10 -24 5
-33 -4 -8 -2 -35 4 -60 10 -39 14 -45 38 -45 15 -1 31 -5 35 -9 4 -5 -1 -6
-13 -2 -16 5 -20 2 -19 -14 2 -25 9 -32 37 -35 36 -4 38 -4 38 -14 0 -5 -11
-11 -25 -13 -17 -4 -25 -1 -25 8 0 8 -3 14 -7 14 -20 -1 -30 -18 -31 -52 -2
-43 21 -63 52 -46 15 8 17 8 10 -3 -7 -12 -5 -12 9 0 15 12 17 11 17 -2 0 -9
5 -19 12 -23 7 -4 8 -3 4 4 -4 7 -2 13 3 13 20 3 26 5 47 17 12 6 25 8 29 4 4
-4 5 2 3 13 -1 11 -7 23 -13 27 -6 4 -2 8 8 8 9 0 17 5 17 10 0 15 -16 12 -30
-5 -7 -8 -9 -15 -4 -15 5 0 -2 -6 -16 -14 -21 -11 -28 -10 -44 3 -10 9 -20 14
-21 11 -2 -3 -6 -2 -10 2 -4 3 2 11 13 17 19 10 23 25 11 46 -3 6 -6 26 -7 45
-1 19 -5 48 -8 65 -10 48 -8 125 5 138 6 6 11 16 11 23 0 24 160 38 168 14 2
-5 15 -10 28 -10 13 0 24 -4 24 -10 0 -6 9 -6 26 0 14 6 31 10 37 9 7 0 4 -4
-6 -8 -17 -6 -16 -8 6 -20 21 -11 28 -11 51 4 14 10 26 22 25 29 0 7 -2 6 -6
-1 -2 -7 -11 -13 -19 -13 -16 0 -17 14 -15 210 l1 136 -48 13 c-26 7 -56 16
-66 19 -13 3 -17 1 -12 -6 4 -7 1 -12 -8 -12 -9 0 -16 5 -16 10 0 6 -20 10
-45 10 -50 0 -64 -16 -48 -53 10 -25 6 -57 -8 -57 -5 0 -9 19 -10 43 0 23 -6
60 -12 81 -11 36 -13 38 -27 21z m280 -361 c0 -6 -9 -14 -21 -17 -15 -4 -18
-2 -10 7 6 7 9 15 6 18 -3 2 2 5 10 5 8 0 15 -6 15 -13z"/>
<path d="M3191 4299 c8 -16 14 -18 22 -10 9 9 8 14 -3 21 -24 16 -31 11 -19
-11z"/>
<path d="M3550 4265 c-14 -8 -20 -15 -15 -15 6 -1 1 -5 -10 -10 -19 -8 -19 -9
3 -9 12 -1 25 6 28 14 4 8 12 15 20 15 8 0 14 5 14 10 0 13 -10 12 -40 -5z"/>
<path d="M1610 4252 c0 -4 16 -8 35 -8 19 0 35 4 35 8 0 4 -16 8 -35 8 -19 0
-35 -4 -35 -8z"/>
<path d="M3590 4221 c0 -6 5 -13 10 -16 6 -3 10 1 10 9 0 9 -4 16 -10 16 -5 0
-10 -4 -10 -9z"/>
<path d="M914 4169 c-4 -8 -3 -9 4 -5 18 11 15 -1 -12 -47 -34 -58 -27 -118
17 -146 40 -25 51 -18 44 30 -4 31 -1 41 13 49 9 5 20 6 24 3 3 -3 6 -1 6 5 0
7 -7 12 -16 12 -11 0 -14 5 -10 16 4 10 -1 25 -9 34 -9 10 -15 26 -13 37 4 21
-36 31 -48 12z"/>
<path d="M3707 4103 c-10 -9 -9 -23 1 -23 5 0 9 7 9 15 0 17 -1 18 -10 8z"/>
<path d="M4141 4034 c-35 -30 -70 -61 -78 -69 -7 -8 -27 -22 -43 -32 -17 -9
-30 -20 -30 -24 0 -4 -13 -12 -30 -19 -27 -11 -43 -40 -22 -40 18 0 72 32 72
42 0 6 12 21 26 35 21 19 32 22 60 17 22 -4 34 -2 34 5 0 6 -7 11 -15 11 -23
0 -18 17 8 25 13 4 17 8 9 12 -15 6 -6 23 13 23 19 0 79 56 68 63 -5 3 -38
-19 -72 -49z"/>
<path d="M1414 4042 c4 -7 2 -19 -4 -27 -11 -14 -6 -35 8 -35 10 0 8 57 -2 67
-5 5 -6 3 -2 -5z"/>
<path d="M4325 4020 c11 -5 27 -9 35 -9 9 0 8 4 -5 9 -11 5 -27 9 -35 9 -9 0
-8 -4 5 -9z"/>
<path d="M4431 3961 c24 -21 46 -37 48 -35 2 2 -7 12 -20 23 -13 11 -20 20
-15 21 15 0 -27 29 -43 30 -7 0 6 -18 30 -39z"/>
<path d="M1400 3953 c0 -13 29 -38 35 -31 3 3 -4 13 -15 23 -11 10 -20 13 -20
8z"/>
<path d="M1491 3938 c-1 -10 -9 -18 -18 -18 -9 0 5 -14 31 -31 26 -17 50 -29
53 -25 3 3 -5 10 -18 15 -22 9 -22 10 10 10 19 1 31 4 27 9 -8 7 -14 9 -46 11
-11 0 -25 11 -30 24 -7 17 -9 18 -9 5z"/>
<path d="M4066 3933 c-14 -15 -4 -31 19 -29 14 0 25 1 25 1 0 7 -40 32 -44 28z"/>
<path d="M940 3920 c-12 -8 -10 -10 8 -10 13 0 20 4 17 10 -7 12 -6 12 -25 0z"/>
<path d="M389 3910 c-8 -6 0 -13 26 -24 45 -19 45 -19 45 -3 0 16 -54 37 -71
27z"/>
<path d="M4495 3910 c5 -8 38 -53 75 -100 72 -93 106 -142 144 -210 14 -25 26
-40 26 -34 0 11 -103 180 -130 212 -8 9 -28 34 -43 55 -34 45 -84 98 -72 77z"/>
<path d="M1239 3906 c-2 -2 -23 -6 -47 -10 -50 -6 -65 -14 -57 -27 3 -5 -1 -6
-9 -3 -16 6 -23 -11 -8 -19 4 -3 7 -37 7 -76 0 -52 4 -71 13 -71 7 0 11 4 8 9
-4 5 12 8 36 6 56 -4 72 2 53 22 -22 21 -18 35 6 28 15 -5 19 -4 15 4 -4 6 -3
11 1 11 12 0 15 36 8 88 -6 38 -14 50 -26 38z"/>
<path d="M1296 3865 c-6 -17 15 -85 26 -85 4 0 8 4 8 9 0 5 8 12 19 16 11 3
19 15 19 29 0 18 -8 26 -34 34 -25 7 -34 7 -38 -3z"/>
<path d="M947 3857 c-3 -8 1 -14 8 -14 7 0 11 6 8 14 -3 7 -6 13 -8 13 -2 0
-5 -6 -8 -13z"/>
<path d="M3116 3858 c-16 -51 -14 -56 20 -63 18 -3 46 -17 62 -30 27 -23 28
-23 40 -4 9 14 9 19 0 19 -6 0 -9 3 -5 6 7 7 -29 44 -44 44 -5 0 -8 -4 -4 -9
3 -5 1 -12 -5 -16 -5 -3 -10 1 -10 9 0 9 -5 16 -11 16 -5 0 -7 -5 -3 -12 4 -7
3 -8 -5 -4 -6 4 -9 11 -6 16 3 5 1 11 -5 15 -6 4 -8 11 -5 16 4 5 1 9 -5 9 -6
0 -12 -6 -14 -12z m109 -88 c3 -5 2 -10 -4 -10 -5 0 -13 5 -16 10 -3 6 -2 10
4 10 5 0 13 -4 16 -10z"/>
<path d="M576 3838 c3 -5 10 -6 15 -3 13 9 11 12 -6 12 -8 0 -12 -4 -9 -9z"/>
<path d="M3965 3840 c-3 -5 1 -10 9 -10 9 0 16 5 16 10 0 6 -4 10 -9 10 -6 0
-13 -4 -16 -10z"/>
<path d="M575 3793 c-3 -10 -12 -12 -27 -7 -22 6 -22 6 2 -14 l25 -21 -53 4
c-31 2 -50 0 -47 -6 4 -5 17 -9 31 -9 13 0 33 -4 44 -10 11 -5 30 -15 43 -21
12 -7 19 -8 15 -4 -10 10 20 38 32 30 6 -4 0 -15 -15 -27 -19 -15 -32 -18 -53
-12 -15 4 -34 8 -44 9 -9 1 -23 5 -30 8 -8 3 -15 -1 -15 -9 0 -7 4 -11 9 -8 4
3 8 1 8 -4 0 -5 9 -12 20 -15 11 -3 20 0 20 6 0 7 4 7 13 -2 10 -10 8 -15 -8
-28 -19 -15 -18 -15 14 -9 18 3 37 6 42 6 5 0 9 7 9 16 0 9 9 18 20 21 11 3
18 9 15 13 -3 4 2 13 10 20 19 16 19 59 0 66 -8 4 -13 9 -11 13 2 3 -11 6 -29
7 -21 0 -36 -5 -40 -13z"/>
<path d="M919 3751 c-13 -9 -26 -18 -29 -22 -7 -9 -40 -7 -40 3 0 4 -10 8 -23
8 -14 0 -24 -6 -24 -14 0 -11 5 -12 18 -5 14 7 21 5 28 -10 6 -10 7 -22 3 -25
-4 -4 5 -5 21 -1 17 5 27 3 27 -4 0 -6 -8 -11 -17 -11 -14 0 -15 -2 -4 -12 11
-10 14 -10 18 0 3 7 22 12 44 12 22 0 38 -4 34 -9 -3 -5 0 -13 6 -17 6 -4 16
1 21 10 8 14 12 15 25 4 18 -15 73 -20 73 -7 0 5 -5 9 -10 9 -7 0 -8 7 -3 18
14 31 10 87 -7 87 -8 0 -15 -5 -15 -12 0 -6 -3 -15 -7 -19 -5 -4 -8 -17 -8
-28 0 -17 -2 -18 -10 -6 -5 8 -10 10 -10 5 0 -6 -24 -11 -57 -10 -52 0 -56 2
-60 25 -2 16 0 20 5 12 9 -14 42 -6 42 10 0 6 17 7 43 3 36 -5 39 -4 22 7 -28
17 -77 17 -106 -1z"/>
<path d="M3269 3703 c5 -10 22 -35 39 -55 16 -21 35 -52 42 -70 18 -44 17 -43
36 -24 9 9 19 14 23 11 3 -4 -4 -14 -17 -23 -18 -14 -21 -23 -16 -50 4 -17 9
-32 13 -32 7 0 5 -80 -4 -170 -4 -36 -4 -62 0 -58 4 4 12 52 19 108 10 82 10
105 -1 118 -14 19 -18 62 -5 62 4 0 13 14 19 30 6 17 8 28 3 25 -7 -5 -34 21
-105 103 -38 43 -64 57 -46 25z"/>
<path d="M3340 3688 c0 -8 9 -23 20 -33 16 -15 20 -15 20 -3 0 8 -9 23 -20 33
-16 15 -20 15 -20 3z"/>
<path d="M1147 3683 c-12 -12 -7 -22 8 -17 8 4 15 10 15 15 0 11 -14 12 -23 2z"/>
<path d="M3700 3679 c0 -5 5 -7 10 -4 6 3 10 8 10 11 0 2 -4 4 -10 4 -5 0 -10
-5 -10 -11z"/>
<path d="M370 3614 c0 -8 5 -12 10 -9 6 3 10 10 10 16 0 5 -4 9 -10 9 -5 0
-10 -7 -10 -16z"/>
<path d="M3382 3618 c6 -18 28 -21 28 -4 0 9 -7 16 -16 16 -9 0 -14 -5 -12
-12z"/>
<path d="M2763 3610 c-34 -14 -28 -20 9 -9 18 5 34 9 34 9 1 0 0 -9 -3 -20 -4
-15 0 -20 16 -20 11 0 21 5 21 11 0 5 -4 7 -10 4 -5 -3 -10 0 -10 9 0 8 6 17
13 19 6 3 -1 5 -18 6 -16 0 -40 -4 -52 -9z"/>
<path d="M465 3590 c-4 -6 -10 -8 -15 -5 -5 3 -12 0 -15 -6 -4 -5 -13 -8 -21
-5 -7 3 -16 1 -19 -4 -3 -5 -12 -7 -20 -4 -24 10 -10 -30 16 -43 19 -10 28 -9
45 2 13 8 26 10 35 4 8 -5 26 -9 41 -9 15 0 56 -11 90 -24 35 -13 81 -28 103
-34 22 -5 61 -16 88 -25 26 -8 47 -11 47 -7 0 4 -16 11 -36 14 -49 10 -97 38
-111 67 -9 17 -13 19 -13 7 0 -16 -3 -16 -37 -1 -21 8 -49 20 -63 26 -14 6
-29 9 -34 8 -5 -1 -6 7 -3 19 3 13 1 18 -6 13 -7 -4 -16 -8 -22 -9 -5 -1 -17
-3 -25 -5 -9 -3 -14 3 -14 14 2 19 -2 22 -11 7z"/>
<path d="M1724 3538 c-24 -53 -29 -77 -31 -158 -1 -52 1 -89 5 -83 4 7 14 -5
24 -28 l17 -39 -26 0 c-17 0 -27 7 -30 20 -4 16 -8 18 -19 9 -21 -18 -17 -39
9 -39 l22 -1 -22 -12 c-21 -12 -22 -14 -7 -35 8 -12 20 -20 25 -17 5 4 9 0 9
-7 0 -9 3 -9 10 2 8 11 9 8 4 -12 -6 -29 4 -57 15 -40 3 5 15 12 26 14 14 2
20 -2 19 -14 -1 -10 2 -16 6 -13 5 3 21 0 35 -5 27 -10 27 -10 21 21 -5 24 -3
29 7 22 6 -6 27 -13 45 -17 30 -5 38 -2 65 29 34 39 47 44 47 16 0 -10 11 -30
25 -45 25 -27 76 -34 120 -17 11 5 25 4 33 -1 8 -7 12 -7 12 0 0 5 -11 17 -25
26 -14 9 -25 22 -25 29 0 7 -7 22 -16 33 -15 18 -15 18 -9 -11 l6 -30 -44 43
c-29 29 -55 45 -80 49 -43 7 -97 -2 -122 -21 -16 -11 -17 -16 -6 -29 10 -13 9
-17 -9 -27 -22 -12 -40 -6 -40 13 0 6 -13 25 -29 42 -41 43 -75 171 -40 149 6
-3 18 1 27 9 28 24 104 6 241 -57 120 -56 151 -62 151 -31 0 8 4 15 9 15 17 0
6 -35 -13 -43 -27 -11 -5 -31 37 -34 31 -1 33 0 29 27 -2 15 -22 48 -44 72
-21 23 -46 51 -55 60 -8 9 -20 14 -27 12 -7 -3 -28 18 -47 46 -44 66 -179 148
-273 165 -32 6 -33 5 -62 -57z m119 17 c11 -7 24 -12 30 -9 7 2 13 -7 13 -23
1 -16 -1 -22 -3 -15 -3 6 -14 12 -25 12 -11 0 -22 8 -25 19 -3 11 -12 22 -22
24 -12 4 -13 5 -1 6 8 0 23 -6 33 -14z m92 -36 c11 -17 -1 -21 -15 -4 -8 9 -8
15 -2 15 6 0 14 -5 17 -11z m-228 -116 c-3 -10 -5 -4 -5 12 0 17 2 24 5 18 2
-7 2 -21 0 -30z m350 -15 c-3 -8 -6 -5 -6 6 -1 11 2 17 5 13 3 -3 4 -12 1 -19z
m48 -41 c7 -8 10 -19 6 -26 -6 -9 -13 -5 -25 13 -17 27 -5 36 19 13z m45 -42
c0 -8 -4 -15 -9 -15 -5 0 -11 7 -15 15 -3 9 0 15 9 15 8 0 15 -7 15 -15z
m-136 -95 c27 -10 66 -45 66 -58 0 -12 -46 -32 -54 -25 -3 4 -6 14 -6 24 0 16
4 17 26 9 16 -6 23 -6 19 0 -3 5 -24 15 -46 21 -43 13 -73 39 -46 39 9 0 27
-4 41 -10z m-110 -15 c-4 -8 -13 -15 -21 -15 -13 0 -13 3 -3 15 7 8 16 15 21
15 5 0 6 -7 3 -15z m38 -40 c-30 -25 -62 -33 -62 -15 0 6 3 9 8 8 4 -1 18 2
31 6 18 6 21 10 10 17 -10 6 -6 9 14 9 l29 0 -30 -25z"/>
<path d="M2651 3552 c-36 -18 -80 -48 -98 -64 -17 -17 -43 -32 -57 -33 -36 -4
-46 -13 -63 -52 -8 -19 -17 -33 -19 -30 -3 3 0 16 6 29 11 23 11 23 -12 -2
-13 -14 -35 -33 -51 -43 -30 -19 -33 -29 -14 -49 23 -24 48 -68 38 -68 -5 0
-13 5 -16 10 -3 6 -12 10 -18 10 -7 -1 -1 -10 12 -21 23 -19 24 -19 37 0 9 12
21 17 33 14 12 -3 43 13 87 46 45 32 95 58 142 73 64 19 71 24 56 35 -24 17
-18 20 47 24 61 4 84 -7 100 -48 7 -18 16 -23 45 -23 20 0 54 5 75 11 30 9 42
9 54 -1 12 -10 15 -10 15 3 0 10 13 20 33 26 21 6 25 10 12 11 -15 1 -11 6 18
21 38 20 46 34 25 42 -10 4 -10 6 0 6 6 1 12 5 12 11 0 6 -9 6 -22 1 -13 -4
-36 -11 -53 -15 -28 -6 -29 -5 -11 9 26 19 16 28 -18 16 -17 -7 -26 -7 -26 -1
0 6 5 10 10 10 6 0 10 5 10 11 0 6 -7 8 -16 5 -22 -8 -40 4 -23 15 9 6 -2 7
-28 3 -30 -5 -43 -3 -43 5 0 7 5 9 10 6 6 -3 10 -1 10 5 0 12 -9 16 -62 25
-28 4 -38 2 -38 -7 0 -8 -14 -22 -31 -32 -18 -11 -29 -14 -25 -7 4 6 4 20 1
31 -9 30 -65 23 -144 -18z m122 14 c4 -10 1 -13 -8 -9 -8 3 -12 9 -9 14 7 12
11 11 17 -5z m-98 -31 c-44 -37 -77 -54 -45 -23 24 23 59 47 70 48 3 0 -8 -11
-25 -25z m230 5 c-10 -11 -25 -20 -34 -19 -12 0 -11 3 4 9 11 5 16 9 10 9 -5
1 -3 6 5 11 26 17 34 11 15 -10z m-35 6 c0 -2 -7 -7 -16 -10 -8 -3 -12 -2 -9
4 6 10 25 14 25 6z m80 -36 c0 -5 -5 -10 -11 -10 -5 0 -7 5 -4 10 3 6 8 10 11
10 2 0 4 -4 4 -10z m-355 -31 c-4 -5 -13 -9 -22 -9 -13 0 -13 3 -3 15 13 15
35 11 25 -6z m-131 -83 c-14 -26 -28 -45 -31 -43 -2 3 8 25 24 50 36 60 41 54
7 -7z m436 22 c0 -12 -3 -18 -7 -14 -11 10 -12 36 -2 36 5 0 9 -10 9 -22z
m100 -8 c0 -5 -7 -7 -15 -4 -8 4 -15 8 -15 10 0 2 7 4 15 4 8 0 15 -4 15 -10z
m-320 -10 c0 -5 -4 -10 -10 -10 -5 0 -10 5 -10 10 0 6 5 10 10 10 6 0 10 -4
10 -10z"/>
<path d="M1242 3533 c-10 -10 -37 -19 -61 -21 -62 -5 -77 -12 -103 -52 -13
-19 -42 -44 -65 -55 -45 -21 -57 -40 -20 -32 12 3 38 -1 57 -8 20 -8 27 -14
17 -14 -10 -1 -17 -7 -15 -13 6 -17 48 -23 48 -8 0 7 6 10 14 7 24 -9 88 13
83 27 -3 8 0 19 6 26 9 10 9 11 0 6 -9 -5 -11 -2 -7 8 3 9 14 16 24 16 10 0
21 7 24 16 5 12 17 15 51 12 25 -2 45 1 45 6 0 5 3 6 8 2 4 -4 7 -13 7 -19 0
-19 42 -20 49 -2 6 17 -37 40 -61 31 -8 -3 -16 1 -19 9 -4 8 -15 15 -25 15
-10 0 -19 5 -19 10 0 6 5 10 12 10 6 0 8 3 5 6 -4 4 -12 2 -19 -3 -7 -5 -21
-13 -31 -16 -15 -6 -16 -4 -7 13 6 10 18 24 28 29 9 6 11 11 5 11 -7 0 -21 -8
-31 -17z m-62 -126 c0 -8 -6 -14 -14 -14 -8 0 -12 6 -9 14 3 7 9 13 14 13 5 0
9 -6 9 -13z"/>
<path d="M317 3500 c-16 -16 -35 -30 -43 -30 -8 0 -14 -4 -14 -8 0 -9 -19 -19
-125 -68 -103 -47 -129 -62 -134 -76 -3 -10 -1 -11 10 0 7 6 23 12 35 12 13 0
26 5 29 10 10 17 51 11 76 -10 21 -17 21 -19 4 -13 -11 3 -25 10 -32 15 -7 5
-14 5 -17 -1 -4 -5 -2 -12 4 -16 6 -3 -2 -17 -18 -32 -26 -25 -26 -26 -4 -20
22 5 23 5 8 -18 -15 -23 -15 -23 17 -14 43 12 47 12 47 -6 0 -9 -14 -17 -40
-21 -41 -7 -66 -26 -56 -43 4 -6 13 -8 21 -4 8 3 15 0 15 -6 0 -6 -3 -10 -8
-10 -41 7 -38 -34 4 -41 20 -4 25 -8 16 -14 -24 -15 -32 -53 -17 -82 8 -15 12
-31 9 -36 -3 -4 -1 -8 4 -8 5 0 19 30 31 68 23 68 118 265 152 314 11 14 19
30 19 35 0 5 12 23 28 40 78 90 77 88 56 91 -10 2 -23 8 -28 13 -15 13 -18 12
-49 -21z m-52 -129 c-3 -6 -11 -11 -17 -11 -6 0 -6 6 2 15 14 17 26 13 15 -4z
m-50 -11 c-10 -11 -28 -20 -39 -19 -15 0 -17 2 -6 6 8 4 21 12 28 20 21 21 37
15 17 -7z m-65 -80 c0 -5 -2 -10 -4 -10 -3 0 -8 5 -11 10 -3 6 -1 10 4 10 6 0
11 -4 11 -10z"/>
<path d="M180 3487 c0 -16 24 -17 37 -1 4 5 4 6 -1 2 -5 -4 -15 -3 -23 3 -10
9 -13 8 -13 -4z"/>
<path d="M3623 3483 c-48 -9 -174 -147 -173 -190 1 -10 11 2 23 27 27 55 96
126 142 146 19 8 35 16 35 19 0 3 -1 4 -2 4 -2 -1 -13 -4 -25 -6z"/>
<path d="M412 3463 c-7 -10 -10 -12 -7 -5 3 6 1 12 -4 12 -13 0 -14 -10 -2
-28 14 -23 54 -2 44 24 -7 19 -15 18 -31 -3z"/>
<path d="M864 3415 c11 -8 16 -15 12 -15 -5 0 -3 -7 4 -15 8 -10 18 -12 28 -6
8 5 23 6 33 4 11 -3 19 0 19 6 0 6 -10 11 -22 11 -13 0 -36 7 -52 15 -36 19
-47 19 -22 0z"/>
<path d="M437 3406 c-14 -11 -15 -15 -5 -19 9 -4 7 -6 -4 -6 -9 -1 -20 -5 -23
-11 -9 -14 25 -60 45 -60 25 0 30 33 9 61 -13 17 -15 27 -7 36 13 17 8 16 -15
-1z"/>
<path d="M3120 3360 c-8 -5 -12 -11 -9 -14 3 -3 14 1 25 9 21 16 8 20 -16 5z"/>
<path d="M934 3346 c23 -18 36 -20 36 -6 0 6 -4 10 -9 10 -5 0 -18 3 -28 6
-16 5 -16 4 1 -10z"/>
<path d="M3043 3350 c-13 -5 -23 -11 -23 -13 0 -8 50 5 56 14 6 11 -4 11 -33
-1z"/>
<path d="M3604 3338 c-23 -13 -52 -31 -65 -40 -20 -15 -21 -17 -4 -11 14 4 5
-10 -26 -43 -68 -73 -81 -99 -84 -168 -3 -66 -41 -259 -57 -290 -7 -12 -7 -21
0 -25 17 -11 -4 -45 -67 -106 -33 -33 -61 -65 -61 -71 0 -7 -21 -35 -46 -63
-25 -28 -43 -54 -40 -59 3 -5 -4 -22 -14 -40 -10 -17 -24 -49 -30 -71 -6 -23
-16 -41 -23 -41 -15 0 -75 -62 -101 -103 -17 -28 -17 -28 3 -18 11 6 32 11 48
11 15 0 35 5 43 11 11 7 5 8 -22 3 -21 -3 -38 -3 -38 1 0 3 12 22 26 41 28 37
52 47 34 15 -14 -27 -13 -36 4 -22 8 7 26 36 40 67 65 137 75 161 81 186 6 23
144 183 145 167 0 -3 -16 -53 -35 -112 -19 -59 -35 -115 -34 -124 0 -10 21 45
48 122 58 172 57 171 82 149 34 -30 99 1 176 85 23 25 43 49 43 53 0 4 -24
-18 -52 -49 -48 -50 -111 -93 -137 -93 -5 0 -16 7 -25 15 -12 12 -13 22 -6 41
6 14 12 66 15 116 4 83 8 119 21 191 3 15 11 27 19 27 7 0 18 7 25 15 11 13
10 14 -5 9 -16 -7 -16 -5 1 27 14 27 19 30 22 16 6 -27 32 -2 26 26 -2 15 8
34 30 59 19 20 31 39 28 42 -3 3 2 6 12 6 9 0 22 11 28 25 11 24 70 46 85 31
4 -4 9 -33 11 -66 5 -69 17 -78 26 -19 5 29 2 48 -11 70 -15 24 -24 29 -58 29
-23 0 -58 -10 -81 -22z m20 -23 c-4 -8 -14 -15 -23 -15 -14 1 -13 3 3 15 25
19 27 19 20 0z"/>
<path d="M1003 3333 c-19 -7 -15 -22 5 -18 9 2 20 4 25 4 4 1 7 6 7 11 0 10
-16 12 -37 3z"/>
<path d="M2948 3328 c-2 -4 -20 -9 -41 -10 -35 -1 -47 -11 -28 -22 5 -3 35 2
67 12 52 16 56 19 32 24 -15 3 -29 1 -30 -4z"/>
<path d="M640 3300 c0 -5 5 -10 11 -10 5 0 7 5 4 10 -3 6 -8 10 -11 10 -2 0
-4 -4 -4 -10z"/>
<path d="M450 3277 c0 -22 11 -27 33 -16 16 9 17 13 6 20 -21 13 -39 11 -39
-4z"/>
<path d="M690 3277 c0 -8 10 -18 23 -24 17 -8 26 -7 37 5 13 14 12 15 -2 9 -9
-3 -22 1 -28 9 -16 18 -30 18 -30 1z"/>
<path d="M2800 3261 c8 -6 24 -11 35 -12 16 0 14 -3 -9 -13 -39 -18 -15 -32
25 -15 26 10 33 10 47 -5 15 -15 13 -16 -30 -16 -25 0 -59 7 -74 15 -16 8 -37
15 -46 15 -9 0 -21 7 -26 16 -6 11 -11 13 -16 5 -9 -14 -53 -15 -61 -1 -4 6
-12 4 -21 -5 -9 -8 -29 -15 -45 -15 -17 0 -32 -6 -35 -15 -4 -8 -28 -27 -55
-42 -27 -14 -49 -30 -49 -35 0 -5 5 -6 10 -3 6 3 10 2 10 -4 0 -19 115 -31
142 -15 8 5 6 10 -6 14 -16 5 -16 9 9 38 24 28 25 32 8 33 -10 0 -13 3 -5 6 6
2 10 9 6 14 -3 5 6 9 20 9 22 0 26 -4 26 -30 0 -46 31 -70 91 -70 28 0 59 5
70 11 11 5 30 12 42 13 49 7 86 19 81 27 -3 5 4 9 15 9 11 0 21 8 23 18 3 13
-10 21 -62 35 -90 24 -139 32 -120 18z m-77 -46 c4 -17 -40 -17 -47 0 -5 13 0
16 19 13 14 -2 27 -7 28 -13z m212 -3 c-3 -3 -11 0 -18 7 -9 10 -8 11 6 5 10
-3 15 -9 12 -12z m-355 -22 c-8 -5 -22 -10 -30 -10 -13 0 -13 1 0 10 8 5 22
10 30 10 13 0 13 -1 0 -10z m-50 -27 c-1 -21 -18 -32 -39 -26 l-23 6 23 13
c28 15 39 17 39 7z"/>
<path d="M3447 3222 c-36 -67 -34 -77 3 -18 17 27 29 53 28 58 -2 6 -16 -12
-31 -40z"/>
<path d="M3590 3245 c-7 -9 -8 -15 -2 -15 5 0 12 7 16 15 3 8 4 15 2 15 -2 0
-9 -7 -16 -15z"/>
<path d="M665 3230 c-4 -6 -4 -10 -1 -10 2 0 11 -3 20 -6 9 -3 16 -2 16 4 0
14 -28 23 -35 12z"/>
<path d="M770 3226 c14 -8 29 -12 33 -9 12 8 -14 23 -38 22 -18 0 -17 -1 5
-13z"/>
<path d="M820 3209 c0 -15 5 -19 15 -15 8 3 15 1 15 -4 0 -6 5 -10 10 -10 20
0 9 27 -15 38 -22 10 -25 9 -25 -9z"/>
<path d="M3565 3175 c3 -28 1 -64 -4 -80 -9 -33 1 -77 13 -57 4 7 4 17 1 22
-3 6 -1 25 6 43 10 28 9 41 -5 78 l-16 44 5 -50z"/>
<path d="M722 3201 c-8 -5 0 -13 23 -24 41 -20 45 -20 45 -7 0 14 -54 40 -68
31z"/>
<path d="M490 3186 c0 -8 5 -18 10 -21 6 -3 10 1 10 9 0 8 -4 18 -10 21 -5 3
-10 -1 -10 -9z"/>
<path d="M547 3187 c-3 -8 1 -14 9 -14 16 0 19 13 5 21 -5 3 -11 0 -14 -7z"/>
<path d="M880 3170 c0 -15 37 -31 55 -24 10 4 21 1 26 -7 5 -9 9 -10 9 -2 0
12 -54 43 -77 43 -7 0 -13 -4 -13 -10z"/>
<path d="M517 3134 c4 -12 73 -14 73 -3 0 4 -17 9 -39 11 -26 2 -37 0 -34 -8z"/>
<path d="M845 3141 c-6 -11 29 -34 38 -24 6 5 -16 33 -27 33 -3 0 -7 -4 -11
-9z"/>
<path d="M3371 3094 c-12 -31 -19 -59 -17 -62 3 -3 8 4 12 14 3 10 12 37 20
58 7 22 12 41 10 43 -2 3 -14 -21 -25 -53z"/>
<path d="M2240 3126 c0 -8 -16 -45 -36 -83 -28 -51 -31 -63 -15 -49 34 31 83
146 62 146 -6 0 -11 -6 -11 -14z"/>
<path d="M974 3119 c-4 -8 0 -9 15 -4 15 5 21 2 21 -9 0 -10 9 -16 23 -16 l22
1 -24 19 c-26 22 -46 25 -57 9z"/>
<path d="M540 3099 c0 -18 40 -79 53 -79 8 0 7 4 -1 12 -7 7 -12 22 -12 35 0
12 -9 27 -20 33 -15 8 -20 8 -20 -1z"/>
<path d="M907 3099 c7 -7 15 -10 18 -7 3 3 -2 9 -12 12 -14 6 -15 5 -6 -5z"/>
<path d="M3590 3089 c-15 -28 -8 -33 13 -9 9 11 12 22 7 25 -5 3 -14 -4 -20
-16z"/>
<path d="M4848 3083 c7 -3 16 -2 19 1 4 3 -2 6 -13 5 -11 0 -14 -3 -6 -6z"/>
<path d="M4806 3071 c-18 -29 51 -104 111 -120 20 -6 28 -14 27 -30 l-1 -21
25 22 24 23 -34 8 c-99 24 -106 36 -33 52 26 6 43 13 40 17 -4 4 -18 3 -32 -3
-38 -14 -71 -11 -93 11 -11 11 -17 26 -14 35 7 16 -11 21 -20 6z"/>
<path d="M4888 3073 c7 -3 16 -2 19 1 4 3 -2 6 -13 5 -11 0 -14 -3 -6 -6z"/>
<path d="M3672 3049 c3 -8 -1 -27 -9 -44 l-14 -30 21 24 c22 26 26 46 9 57 -7
4 -10 1 -7 -7z"/>
<path d="M4690 3049 c0 -5 5 -7 10 -4 6 3 10 8 10 11 0 2 -4 4 -10 4 -5 0 -10
-5 -10 -11z"/>
<path d="M4337 2999 c-11 -10 -14 -20 -9 -23 6 -3 12 0 15 6 5 16 18 6 21 -16
1 -9 13 -26 26 -38 21 -19 36 -23 95 -23 67 0 70 -1 67 -22 -2 -13 2 -23 7
-23 6 0 11 7 11 15 0 8 10 23 22 35 l22 20 -30 1 c-32 2 -30 2 -73 -6 -17 -3
-45 -7 -62 -10 -18 -3 -28 -2 -25 4 4 5 0 13 -8 18 -7 4 -24 24 -38 44 -22 33
-24 34 -41 18z"/>
<path d="M1993 2993 c9 -2 25 -2 35 0 9 3 1 5 -18 5 -19 0 -27 -2 -17 -5z"/>
<path d="M1844 2884 c0 -35 3 -64 8 -64 10 0 10 101 0 117 -4 6 -7 -18 -8 -53z"/>
<path d="M2314 2929 c-4 -8 1 -9 15 -4 13 4 36 1 53 -6 30 -12 30 -13 26 -71
-4 -52 -3 -57 8 -36 22 40 17 84 -12 107 -29 23 -79 28 -90 10z"/>
<path d="M3810 2930 c0 -6 19 -31 43 -56 45 -48 109 -74 180 -74 30 0 40 -4
44 -20 8 -30 23 -24 23 9 0 16 3 36 6 45 5 13 -1 16 -25 16 -18 0 -48 7 -69
16 -35 16 -45 18 -85 22 -11 1 -15 7 -11 14 4 6 3 8 -3 5 -6 -4 -29 2 -51 13
-47 23 -52 24 -52 10z"/>
<path d="M4640 2930 c-20 -6 -21 -8 -5 -8 11 0 31 4 45 8 20 6 21 8 5 8 -11 0
-31 -4 -45 -8z"/>
<path d="M2125 2920 c-62 -14 -75 -22 -75 -44 0 -12 -5 -27 -10 -32 -24 -24
28 -74 83 -80 l29 -4 -41 41 c-58 59 -54 89 16 104 18 3 35 11 38 16 7 10 4
10 -40 -1z m-25 -137 c0 -10 -41 20 -49 36 -18 33 1 32 26 -1 12 -18 23 -33
23 -35z"/>
<path d="M277 2824 c-1 -2 -20 -5 -42 -7 -21 -2 -41 -9 -43 -16 -3 -8 8 -10
38 -5 23 4 56 7 74 8 40 1 46 21 6 22 -17 0 -32 -1 -33 -2z"/>
<path d="M371 2814 c-11 -13 -10 -15 5 -12 14 2 18 -2 16 -16 -3 -15 -1 -18
10 -10 26 20 43 11 40 -21 -2 -17 -1 -27 3 -23 4 4 22 -4 41 -18 18 -14 38
-23 43 -19 7 3 8 0 5 -9 -4 -11 -11 -13 -23 -7 -13 7 -17 5 -18 -10 -1 -10 3
-21 8 -24 5 -4 7 -11 4 -16 -4 -5 5 -4 19 2 16 8 23 17 19 28 -5 13 -4 14 8 3
12 -11 11 -16 -8 -31 -11 -10 -18 -23 -14 -29 4 -7 17 -1 35 19 23 24 26 32
16 44 -21 25 -4 46 35 43 40 -2 58 10 45 31 -7 13 -11 13 -27 1 -10 -8 -15
-10 -11 -6 11 13 -35 34 -79 37 -21 2 -41 8 -45 14 -5 6 -8 5 -8 -3 0 -7 -4
-11 -10 -7 -5 3 -7 11 -5 18 6 14 -39 37 -69 37 -12 -1 -27 -8 -35 -16z m64
-13 c-3 -6 -11 -8 -17 -5 -6 4 -5 9 3 15 16 10 23 4 14 -10z"/>
<path d="M1435 2814 c11 -8 26 -12 35 -8 8 3 38 10 65 14 46 7 43 8 -35 8 -77
1 -83 0 -65 -14z"/>
<path d="M901 2809 c-65 -13 -62 -19 7 -19 48 0 62 3 62 15 0 16 -5 17 -69 4z"/>
<path d="M1060 2811 c0 -6 4 -13 10 -16 6 -3 7 1 4 9 -7 18 -14 21 -14 7z"/>
<path d="M1350 2805 c-9 -11 -16 -12 -25 -5 -20 17 -73 -8 -90 -42 -8 -17 -12
-34 -9 -39 12 -21 67 -39 133 -45 58 -6 70 -10 73 -26 4 -27 22 -23 26 5 3 20
12 27 54 38 28 8 53 20 56 27 3 9 -3 10 -23 2 -15 -6 -31 -7 -37 -4 -6 4 -9 3
-5 -2 3 -6 -22 -10 -59 -10 -54 -1 -64 2 -64 16 0 13 -6 16 -24 13 -20 -4 -23
-1 -21 22 4 35 21 53 53 58 l27 4 -26 2 c-15 0 -32 -6 -39 -14z m-35 -34 c-3
-12 -11 -19 -16 -16 -5 4 -9 1 -9 -6 0 -7 -3 -9 -6 -6 -4 4 1 18 10 33 20 29
31 26 21 -5z"/>
<path d="M133 2794 c-18 -8 -33 -20 -33 -27 0 -9 2 -9 9 1 4 8 12 14 17 14 5
0 14 2 19 3 6 2 17 5 25 7 7 3 10 7 5 10 -6 3 -25 -1 -42 -8z"/>
<path d="M1831 2773 c-11 -40 -15 -90 -6 -81 7 7 24 112 20 116 -2 2 -8 -13
-14 -35z"/>
<path d="M2268 2792 c-36 -21 -36 -33 0 -26 15 3 43 6 62 7 24 1 36 7 38 20 3
14 -4 17 -35 17 -21 0 -50 -8 -65 -18z"/>
<path d="M749 2772 c-46 -20 -62 -45 -54 -82 5 -22 18 -33 63 -53 31 -14 68
-27 82 -29 19 -2 26 -10 28 -33 5 -41 17 -51 37 -31 9 9 14 16 10 16 -3 0 -1
9 5 20 6 11 19 20 30 20 10 0 21 4 24 9 3 4 26 14 51 21 25 7 48 17 52 22 13
23 -44 34 -74 15 -6 -4 -22 -3 -36 2 -14 5 -27 7 -30 4 -3 -2 -13 6 -22 20
-14 22 -21 24 -56 20 -27 -4 -44 -2 -49 7 -5 8 -16 9 -30 5 -16 -5 -19 -10
-10 -15 9 -5 9 -9 1 -14 -6 -4 -14 1 -18 11 -3 10 -8 22 -11 27 -3 5 4 7 16 4
26 -7 50 16 30 28 -9 6 -4 11 17 15 26 6 27 7 5 7 -14 0 -41 -7 -61 -16z"/>
<path d="M1460 2769 c0 -11 5 -17 10 -14 6 3 10 13 10 21 0 8 -4 14 -10 14 -5
0 -10 -9 -10 -21z"/>
<path d="M186 2768 c-3 -7 -4 -22 -3 -32 0 -18 2 -17 19 4 18 22 16 40 -3 40
-5 0 -11 -6 -13 -12z"/>
<path d="M240 2766 c0 -2 7 -7 16 -10 8 -3 12 -2 9 4 -6 10 -25 14 -25 6z"/>
<path d="M1060 2755 c7 -9 15 -13 17 -11 7 7 -7 26 -19 26 -6 0 -6 -6 2 -15z"/>
<path d="M10 2661 c0 -87 0 -89 28 -99 48 -19 70 -23 175 -35 100 -12 102 -13
105 -39 3 -25 27 -56 37 -47 2 3 6 22 8 44 3 30 10 41 28 48 65 25 119 53 119
64 0 8 -9 8 -36 0 -26 -8 -44 -8 -64 0 -23 9 -32 8 -40 -3 -12 -14 -64 -9 -86
7 -6 5 -16 3 -24 -4 -10 -9 -11 -9 -6 0 4 8 -6 14 -31 19 -51 9 -120 53 -127
82 -4 13 -14 22 -26 22 -11 0 -20 7 -20 15 0 8 -9 15 -20 15 -18 0 -20 -7 -20
-89z"/>
<path d="M3844 2734 c-18 -14 -18 -15 4 -4 12 6 22 13 22 15 0 8 -5 6 -26 -11z"/>
<path d="M1600 2720 c-9 -6 -10 -10 -3 -10 6 0 15 5 18 10 8 12 4 12 -15 0z"/>
<path d="M1090 2685 c0 -9 5 -15 11 -13 6 2 11 8 11 13 0 5 -5 11 -11 13 -6 2
-11 -4 -11 -13z"/>
<path d="M600 2659 c0 -18 2 -19 15 -9 15 12 12 30 -6 30 -5 0 -9 -10 -9 -21z"/>
<path d="M2275 2589 c-20 -18 -33 -34 -30 -37 3 -3 14 4 25 16 29 30 62 36 99
18 17 -9 31 -14 31 -11 0 5 -75 45 -84 45 -3 0 -21 -14 -41 -31z"/>
<path d="M2136 2584 c-5 -14 -4 -15 8 -5 10 8 16 9 21 2 3 -6 16 -16 28 -22
21 -11 21 -10 -2 15 -28 30 -46 33 -55 10z"/>
<path d="M1195 2550 c3 -5 12 -7 20 -3 21 7 19 13 -6 13 -11 0 -18 -4 -14 -10z"/>
<path d="M1250 2541 c0 -5 5 -13 10 -16 6 -3 10 -2 10 4 0 5 -4 13 -10 16 -5
3 -10 2 -10 -4z"/>
<path d="M2110 2533 c-24 -12 -24 -13 -3 -13 12 0 25 5 28 11 11 16 2 17 -25
2z"/>
<path d="M2520 2529 l-35 -19 45 3 c33 1 46 6 48 20 4 21 -12 20 -58 -4z"/>
<path d="M548 2503 c7 -3 16 -2 19 1 4 3 -2 6 -13 5 -11 0 -14 -3 -6 -6z"/>
<path d="M2116 2501 c6 -7 30 -15 53 -18 22 -3 41 -10 41 -14 0 -14 54 -10 95
7 44 18 40 31 -6 15 -17 -6 -35 -9 -39 -6 -5 3 -36 7 -69 10 -34 2 -67 7 -74
11 -9 5 -9 4 -1 -5z"/>
<path d="M785 2490 c3 -5 16 -10 28 -9 21 0 21 1 2 9 -28 12 -37 12 -30 0z"/>
<path d="M3327 2428 c2 -66 -22 -194 -38 -203 -5 -4 -9 10 -9 29 0 36 -20 50
-36 24 -4 -7 -3 -8 4 -4 8 5 12 -2 12 -21 0 -29 16 -53 35 -53 31 0 69 193 51
264 -11 46 -21 28 -19 -36z"/>
<path d="M2471 2450 c-35 -48 -90 -79 -155 -86 -43 -5 -57 -4 -52 4 4 8 2 10
-8 6 -10 -4 -21 7 -35 33 -11 21 -20 31 -21 22 0 -9 10 -31 23 -50 22 -31 27
-34 73 -33 76 2 161 49 190 106 19 36 13 35 -15 -2z"/>
<path d="M1938 2445 c16 -30 93 -118 138 -156 29 -25 -60 80 -144 171 -3 3 0
-4 6 -15z"/>
<path d="M3114 2439 c-10 -11 -38 -34 -61 -50 -24 -16 -62 -42 -85 -58 -24
-16 -86 -52 -138 -80 -112 -60 -112 -68 0 -12 126 63 323 200 309 215 -3 3
-14 -3 -25 -15z"/>
<path d="M12 2430 c0 -14 2 -19 5 -12 2 6 2 18 0 25 -3 6 -5 1 -5 -13z"/>
<path d="M4550 2425 c-7 -9 -8 -15 -2 -15 5 0 12 7 16 15 3 8 4 15 2 15 -2 0
-9 -7 -16 -15z"/>
<path d="M88 2423 c-10 -2 -18 -9 -18 -14 0 -14 26 -11 40 6 13 15 9 16 -22 8z"/>
<path d="M4651 2404 c0 -11 3 -14 6 -6 3 7 2 16 -1 19 -3 4 -6 -2 -5 -13z"/>
<path d="M12 2365 c0 -16 2 -22 5 -12 2 9 2 23 0 30 -3 6 -5 -1 -5 -18z"/>
<path d="M3260 2373 c0 -20 -42 -94 -83 -146 -16 -21 -27 -40 -24 -43 6 -7 57
61 92 121 29 51 40 85 26 85 -6 0 -11 -7 -11 -17z"/>
<path d="M4515 2353 c-8 -20 -13 -38 -10 -41 3 -3 5 -3 5 0 0 3 7 22 15 42 8
20 13 36 10 36 -2 0 -12 -16 -20 -37z"/>
<path d="M12 2305 c0 -16 2 -22 5 -12 2 9 2 23 0 30 -3 6 -5 -1 -5 -18z"/>
<path d="M3366 2269 c10 -31 13 -70 10 -98 -3 -25 -8 -104 -11 -176 -3 -71 -8
-161 -11 -200 -5 -58 -2 -79 15 -119 12 -27 24 -46 27 -43 3 3 -2 20 -12 38
-13 26 -17 57 -16 137 1 57 4 106 6 110 2 4 7 77 11 163 5 113 4 166 -6 197
-7 23 -16 42 -20 42 -4 0 -1 -23 7 -51z"/>
<path d="M4486 2283 c-6 -14 -5 -15 5 -6 7 7 10 15 7 18 -3 3 -9 -2 -12 -12z"/>
<path d="M4475 2249 c-4 -6 -5 -12 -2 -15 2 -3 7 2 10 11 7 17 1 20 -8 4z"/>
<path d="M12 2215 c0 -16 2 -22 5 -12 2 9 2 23 0 30 -3 6 -5 -1 -5 -18z"/>
<path d="M4904 2203 c2 -10 18 -63 35 -118 17 -55 33 -118 37 -141 6 -42 -23
-215 -50 -291 -18 -50 -4 -71 25 -42 11 11 17 24 14 29 -8 13 14 52 25 45 6
-4 7 7 3 26 -4 20 -2 30 4 26 12 -8 11 36 -1 45 -5 3 4 15 21 25 l31 18 -19
24 c-15 18 -17 27 -8 37 6 7 7 19 3 25 -4 8 -3 9 4 5 8 -5 12 3 12 23 0 25 -4
31 -21 31 -11 0 -17 4 -14 10 3 5 -1 27 -10 47 -10 21 -22 49 -27 63 -6 14
-19 41 -29 61 -11 20 -19 44 -19 53 0 9 -5 16 -11 16 -6 0 -8 -8 -5 -17z"/>
<path d="M2195 2188 c9 -14 18 -39 19 -55 4 -41 32 -50 172 -52 149 -2 196 10
265 71 50 45 40 41 -46 -17 l-60 -40 -129 0 -129 0 -54 60 c-30 33 -48 48 -38
33z"/>
<path d="M13 2140 c0 -25 2 -35 4 -22 2 12 2 32 0 45 -2 12 -4 2 -4 -23z"/>
<path d="M4641 2131 c-1 -15 32 -225 55 -351 14 -76 51 -186 60 -177 2 2 -5
26 -16 55 -11 28 -36 145 -55 259 -35 203 -43 242 -44 214z"/>
<path d="M4841 2110 c0 -8 4 -24 9 -35 5 -13 9 -14 9 -5 0 8 -4 24 -9 35 -5
13 -9 14 -9 5z"/>
<path d="M4385 2049 c-4 -6 -5 -12 -2 -15 2 -3 7 2 10 11 7 17 1 20 -8 4z"/>
<path d="M3044 2037 c-25 -14 -76 -72 -93 -106 -16 -30 -7 -40 61 -62 29 -9
61 -20 71 -24 12 -5 17 -2 17 11 0 10 12 49 26 86 17 41 24 74 19 85 -5 14
-10 8 -20 -27 -7 -25 -21 -65 -31 -90 l-19 -46 -52 16 c-29 9 -55 18 -58 22
-11 10 23 66 66 109 21 21 38 39 37 39 -2 -1 -12 -6 -24 -13z"/>
<path d="M4861 2034 c0 -11 3 -14 6 -6 3 7 2 16 -1 19 -3 4 -6 -2 -5 -13z"/>
<path d="M4370 2007 c0 -9 -4 -17 -9 -17 -13 0 -52 -68 -41 -72 4 -2 -3 -46
-16 -98 -13 -52 -29 -115 -35 -140 -6 -25 -22 -104 -34 -177 -12 -72 -32 -151
-43 -174 -12 -23 -19 -46 -16 -50 15 -25 -76 -281 -115 -322 -4 -4 -28 33 -54
81 l-47 89 63 38 c74 46 150 106 142 113 -3 3 -17 -5 -31 -19 -20 -18 -28 -20
-32 -11 -3 9 -8 6 -16 -10 -15 -31 -118 -99 -131 -88 -7 6 -16 1 -23 -11 -7
-10 -20 -19 -30 -19 -10 0 -27 -7 -38 -15 -25 -19 -18 -19 40 1 41 14 50 14
57 3 13 -20 11 -31 -3 -23 -7 4 -3 -4 9 -17 11 -13 32 -50 46 -83 l24 -58 -23
-49 c-30 -62 -52 -75 -144 -90 -101 -16 -374 -17 -424 -2 -38 12 -57 10 -43
-3 10 -10 190 -52 279 -65 94 -14 159 -3 235 38 46 25 167 63 198 63 8 0 15
-5 15 -11 0 -6 12 -24 28 -39 15 -15 32 -33 37 -39 21 -24 156 -131 177 -141
21 -10 21 -9 -2 10 -100 86 -153 135 -189 179 l-43 51 49 21 c115 49 200 116
209 166 8 41 -3 106 -17 98 -5 -4 -7 -10 -4 -15 8 -12 -38 -99 -69 -132 -40
-42 -87 -75 -138 -97 l-47 -20 -21 33 -20 33 45 95 c48 102 80 194 96 272 6
32 23 67 48 100 94 122 154 301 155 466 1 88 -1 98 -26 135 -18 25 -28 33 -28
22z m45 -105 c16 -124 -52 -363 -140 -489 l-27 -38 6 45 c3 25 10 68 16 95 6
28 13 64 15 80 10 60 27 132 51 215 13 47 29 105 35 130 10 40 12 43 24 26 7
-9 16 -39 20 -64z m-347 -1069 c-18 -6 -41 -12 -51 -12 -16 -1 -15 4 10 33
l28 33 23 -21 23 -21 -33 -12z m-163 -62 c-18 -17 -118 -41 -164 -40 -25 0
-68 6 -96 13 -49 12 -48 12 65 14 94 2 150 8 200 21 2 0 0 -3 -5 -8z"/>
<path d="M4870 1991 c0 -11 4 -22 9 -25 4 -3 6 6 3 19 -5 30 -12 33 -12 6z"/>
<path d="M2752 1926 c-63 -76 -116 -120 -218 -181 -53 -32 -64 -35 -138 -35
-134 -1 -306 -29 -306 -51 0 -5 13 -7 30 -6 16 1 30 6 30 11 0 4 9 6 20 3 11
-3 18 -2 15 3 -7 11 75 20 186 20 82 0 104 3 134 21 20 12 39 19 42 16 13 -14
58 21 162 124 59 58 117 136 109 144 -3 3 -33 -28 -66 -69z"/>
<path d="M2821 1907 c-29 -34 -83 -95 -120 -136 -36 -40 -71 -81 -79 -92 -15
-21 -100 -62 -113 -53 -5 3 -9 1 -9 -5 0 -6 -7 -8 -15 -5 -8 4 -15 1 -15 -6 0
-6 -4 -9 -8 -6 -10 6 -167 -68 -177 -83 -11 -19 -21 -12 -55 35 -18 25 -47 54
-64 65 -32 20 -76 26 -76 10 0 -4 11 -6 24 -4 18 4 36 -6 70 -37 42 -39 63
-72 34 -54 -7 5 -3 -8 9 -27 22 -33 53 -51 53 -30 0 6 68 44 150 85 83 41 150
71 150 68 0 -4 -6 -16 -13 -27 -8 -11 -33 -58 -57 -105 -24 -47 -57 -100 -74
-117 -16 -18 -27 -33 -23 -33 17 0 79 81 108 140 46 92 107 175 184 250 37 35
62 66 56 68 -6 2 13 31 42 65 61 72 81 97 76 97 -2 0 -28 -28 -58 -63z"/>
<path d="M11 1944 c0 -11 3 -14 6 -6 3 7 2 16 -1 19 -3 4 -6 -2 -5 -13z"/>
<path d="M3188 1913 c-6 -16 -16 -41 -24 -58 -19 -46 -36 -93 -35 -100 1 -3
-6 -19 -15 -36 -8 -17 -13 -33 -10 -36 7 -7 56 102 81 177 16 50 35 86 35 66
0 -4 -9 -53 -20 -108 -14 -69 -18 -104 -11 -111 7 -7 12 -6 15 4 5 15 26 183
26 212 0 27 -29 20 -42 -10z"/>
<path d="M4850 1920 c-12 -8 -11 -10 7 -10 12 0 25 5 28 10 8 13 -15 13 -35 0z"/>
<path d="M4942 1865 c0 -16 2 -22 5 -12 2 9 2 23 0 30 -3 6 -5 -1 -5 -18z"/>
<path d="M4810 1825 c0 -5 5 -17 10 -25 5 -8 10 -10 10 -5 0 6 -5 17 -10 25
-5 8 -10 11 -10 5z"/>
<path d="M4189 1773 c-13 -16 -12 -17 4 -4 16 13 21 21 13 21 -2 0 -10 -8 -17
-17z"/>
<path d="M864 1754 c12 -11 14 -26 10 -57 -4 -23 -7 -44 -6 -47 0 -30 4 -40
12 -35 6 3 10 1 10 -4 0 -6 -3 -11 -7 -11 -13 0 -35 -54 -23 -58 6 -2 8 -8 4
-13 -3 -5 0 -9 7 -9 7 0 9 -3 6 -7 -4 -3 -15 1 -26 11 -15 14 -17 24 -10 59
11 59 11 165 -1 172 -5 3 -10 0 -10 -7 0 -9 -3 -9 -10 2 -7 10 -12 12 -17 4
-5 -6 -37 -21 -72 -32 -66 -22 -187 -89 -194 -107 -2 -5 -3 -1 -1 11 2 11 -2
28 -9 38 -10 14 -12 8 -12 -35 -1 -47 -4 -55 -35 -81 -19 -16 -43 -34 -52 -39
-16 -8 -17 -7 -8 15 6 17 5 26 -3 29 -9 3 -9 8 1 18 14 15 16 53 2 44 -6 -3
-10 1 -10 9 0 9 -6 13 -14 10 -13 -5 -13 -1 -3 25 6 18 19 31 28 31 9 0 19 6
22 13 3 9 -24 5 -93 -12 -95 -25 -98 -26 -103 -56 -2 -16 -10 -55 -16 -85 -9
-45 -8 -65 4 -105 11 -38 12 -51 2 -57 -9 -5 -9 -10 0 -19 8 -8 28 1 79 36 91
61 214 163 214 175 0 6 5 10 11 10 6 0 21 13 34 28 26 31 107 74 174 92 47 12
61 5 61 -32 0 -9 5 -20 10 -23 6 -3 10 -29 10 -56 0 -33 -4 -48 -11 -44 -6 4
-5 -3 3 -14 7 -12 41 -40 76 -63 35 -23 75 -56 89 -75 27 -35 50 -45 38 -15
-13 30 -13 66 1 94 17 32 18 62 3 53 -7 -5 -8 -1 -1 11 19 39 29 81 22 100
-10 24 -154 124 -181 124 -19 0 -19 -1 -5 -16z m-27 -86 c-3 -7 -5 -2 -5 12 0
14 2 19 5 13 2 -7 2 -19 0 -25z m108 -196 c-3 -3 -11 0 -18 7 -9 10 -8 11 6 5
10 -3 15 -9 12 -12z"/>
<path d="M767 1693 c-4 -3 -7 -20 -7 -37 0 -22 -3 -27 -9 -17 -5 8 -7 21 -3
29 6 17 -2 14 -50 -20 -32 -22 -27 -48 8 -48 18 0 25 -7 30 -27 8 -34 23 -55
34 -48 5 3 16 -5 24 -17 23 -33 19 -11 -5 28 -11 19 -17 39 -13 45 4 6 8 26 9
43 1 17 4 36 5 41 7 28 -7 45 -23 28z"/>
<path d="M4780 1674 c0 -11 6 -14 23 -8 22 6 22 6 -2 -15 -13 -12 -22 -23 -20
-25 7 -7 49 13 49 24 0 5 6 10 14 10 8 0 16 7 20 15 4 12 -4 15 -39 15 -34 0
-45 -4 -45 -16z"/>
<path d="M3087 1651 c-4 -17 -3 -21 5 -13 5 5 8 16 6 23 -3 8 -7 3 -11 -10z"/>
<path d="M3230 1638 c-45 -13 -69 -34 -63 -57 4 -15 -4 -19 -56 -24 -98 -11
-202 -74 -347 -213 -12 -11 -34 -30 -49 -42 -15 -12 -24 -22 -19 -22 12 0 46
26 138 105 88 75 178 132 242 151 45 13 121 13 192 -2 13 -3 21 -1 18 4 -3 5
-26 12 -51 15 -55 6 -66 14 -42 32 18 13 18 13 0 17 -34 8 70 30 118 26 26 -3
65 -14 87 -25 24 -11 46 -17 54 -12 17 11 14 13 -78 37 -90 24 -94 25 -144 10z"/>
<path d="M1750 1587 c0 -30 36 -63 78 -72 18 -4 30 -10 27 -15 -3 -5 -1 -11 5
-15 5 -3 10 -1 10 5 0 6 5 8 10 5 6 -3 10 -15 10 -26 0 -10 4 -19 9 -19 5 0
30 -20 57 -45 26 -25 54 -45 63 -45 27 0 81 39 81 58 0 38 15 31 84 -35 72
-70 72 -62 1 17 -54 61 -98 90 -126 83 -16 -4 -20 -3 -15 6 4 6 2 18 -4 26
-10 12 -7 17 15 25 14 5 32 10 40 10 8 0 17 5 21 11 4 8 -1 9 -17 4 -13 -3
-33 -9 -44 -12 -34 -9 -47 -24 -34 -39 9 -11 7 -15 -5 -20 -18 -7 -13 -49 10
-74 12 -12 14 -11 14 12 0 18 6 27 22 31 32 9 35 0 10 -26 -18 -19 -19 -26 -9
-36 10 -10 8 -12 -8 -9 -11 2 -25 -3 -31 -11 -10 -12 -13 -11 -23 7 -6 12 -18
50 -26 84 l-14 63 2 -57 c2 -60 -7 -68 -18 -15 -13 67 -19 75 -25 37 l-5 -35
-21 51 c-12 28 -19 56 -15 61 3 6 48 13 99 16 108 6 156 -5 149 -34 -3 -11 0
-19 7 -19 12 0 67 -54 104 -104 12 -16 22 -24 22 -18 0 6 -20 36 -45 66 -25
31 -45 62 -45 69 0 20 -55 47 -107 53 -27 3 -82 1 -123 -3 -75 -8 -75 -8 -75
-38 0 -24 -5 -31 -23 -33 -31 -5 -72 23 -72 48 0 22 20 26 53 9 21 -10 21 -10
3 5 -11 9 -32 16 -48 16 -23 0 -28 -4 -28 -23z"/>
<path d="M3225 1590 c-49 -24 -36 -26 26 -3 46 16 49 16 109 -7 34 -13 75 -34
91 -48 28 -23 41 -18 17 6 -9 9 -5 12 17 13 l30 1 -35 12 c-20 8 -37 9 -41 4
-3 -5 -32 2 -64 16 -68 31 -97 32 -150 6z"/>
<path d="M4640 1577 c-26 -9 -36 -19 -39 -37 -3 -25 -3 -25 17 -6 12 10 39 19
64 21 37 2 44 0 44 -16 0 -11 -4 -19 -9 -19 -5 0 -4 -7 3 -15 15 -18 35 -20
24 -3 -4 6 -3 8 3 5 18 -11 63 -16 63 -6 0 5 -14 23 -30 41 -17 17 -28 34 -25
37 4 3 10 -1 14 -8 5 -8 14 -10 21 -6 38 24 -86 34 -150 12z"/>
<path d="M566 1531 c-3 -5 2 -15 11 -22 15 -12 16 -12 10 3 -5 14 2 18 36 21
l42 4 -47 1 c-26 1 -49 -2 -52 -7z"/>
<path d="M3336 1515 c-8 -32 -65 -85 -92 -85 -14 0 -24 8 -27 21 -4 15 -2 19
9 15 8 -3 20 -8 27 -11 6 -3 19 0 27 5 12 8 13 11 1 19 -9 6 -10 11 -2 15 6 4
11 13 11 19 -1 7 -9 2 -19 -10 -16 -19 -25 -21 -77 -16 -32 3 -75 0 -94 -6
-31 -9 -28 -10 27 -5 55 5 62 4 67 -14 14 -44 42 -56 131 -55 68 0 90 4 105
18 26 24 18 32 -12 11 -36 -25 -56 -21 -30 7 32 34 27 41 -10 14 -33 -24 -98
-51 -105 -43 -3 2 5 7 16 11 27 8 71 62 71 85 0 29 -17 33 -24 5z"/>
<path d="M484 1478 c-12 -25 -32 -41 -84 -65 -38 -18 -74 -33 -80 -33 -6 0 -8
-5 -4 -11 8 -13 81 -4 101 13 10 8 13 7 13 -5 0 -8 -12 -17 -27 -20 -16 -2
-44 -10 -63 -17 -19 -7 -42 -15 -50 -18 -13 -4 -13 -6 1 -9 14 -3 59 9 110 31
14 6 18 -1 21 -36 3 -24 0 -46 -5 -49 -5 -4 3 -6 17 -6 21 0 24 2 15 13 -17
20 -4 84 21 101 14 10 20 23 18 41 -3 23 1 27 25 30 26 3 28 1 20 -20 -4 -13
-8 -52 -8 -86 0 -55 3 -66 24 -83 13 -10 34 -19 47 -19 16 0 22 -4 18 -14 -4
-11 3 -15 28 -14 18 0 52 -3 75 -7 34 -6 45 -4 63 13 l21 19 -28 -4 c-25 -4
-26 -3 -11 10 20 16 14 29 -9 20 -12 -5 -13 -2 -5 13 6 11 8 31 5 45 -5 25 -3
27 49 32 60 6 64 4 72 -38 l6 -30 -15 33 c-23 48 -32 39 -33 -30 0 -35 -7 -81
-15 -103 -9 -22 -21 -64 -27 -92 -7 -29 -14 -53 -15 -53 -2 0 -20 10 -40 21
-26 16 -35 27 -32 40 8 29 -14 35 -34 11 -21 -26 -56 -28 -82 -5 -18 17 -19
17 -32 0 -15 -20 -28 -21 -55 -5 -16 11 -22 9 -34 -7 -9 -11 -16 -15 -16 -9 0
17 -32 27 -41 12 -9 -15 9 -40 23 -32 6 4 55 9 109 12 l98 4 -6 -23 c-6 -24
-6 -24 15 -5 22 19 22 19 22 -2 0 -16 -6 -22 -23 -22 -15 0 -40 -18 -71 -51
-55 -58 -97 -79 -160 -79 -51 0 -90 27 -121 84 l-19 35 26 28 c28 30 78 118
78 138 0 7 -16 15 -36 18 -28 5 -43 1 -62 -13 -29 -23 -55 -25 -71 -6 -10 12
-5 16 25 26 20 7 57 10 82 7 27 -3 39 -1 31 4 -39 25 -158 0 -177 -38 -12 -23
-4 -79 14 -94 24 -20 15 -39 -28 -56 -23 -9 -37 -18 -32 -20 6 -2 23 3 39 11
28 15 45 13 45 -4 0 -4 -12 -11 -27 -15 -48 -12 -163 -93 -163 -116 0 -4 17 8
38 27 40 36 110 74 140 74 10 0 26 -14 36 -31 24 -40 93 -89 125 -88 22 0 20
3 -14 15 -43 15 -94 68 -95 97 0 9 -4 17 -9 17 -5 0 -11 7 -15 15 -3 10 1 15
14 15 12 0 22 -11 30 -34 6 -19 28 -50 49 -69 72 -65 170 -58 245 16 23 23 55
50 70 61 l29 18 -5 -26 c-3 -15 0 -30 8 -37 17 -14 56 -8 62 10 3 10 -3 12
-27 9 -26 -4 -31 -2 -26 11 4 9 9 30 12 48 l5 32 39 -20 c42 -21 44 -25 29
-63 -5 -14 -6 -26 -1 -26 17 0 101 227 101 273 0 20 4 23 25 19 30 -5 33 16 9
73 -13 31 -13 39 -2 46 10 7 9 9 -4 9 -11 0 -27 19 -43 49 -13 27 -29 52 -35
56 -11 7 -3 -19 16 -50 6 -11 15 -30 19 -42 6 -21 3 -23 -32 -23 -55 0 -83 10
-83 29 0 20 -52 121 -63 121 -4 0 -3 -9 3 -19 5 -11 10 -32 10 -46 0 -25 -3
-27 -27 -20 l-28 7 28 -22 c31 -24 34 -51 12 -103 -19 -46 -41 -67 -69 -67
-36 0 -56 30 -56 83 0 42 2 47 23 47 23 0 52 34 42 50 -4 6 -15 10 -26 10 -11
0 -17 5 -14 10 12 20 -5 29 -36 18 -37 -13 -42 -8 -30 26 15 37 4 32 -15 -6z
m-59 -79 c-22 -10 -47 -18 -55 -18 -8 0 3 9 25 20 22 10 47 18 55 18 8 0 -3
-9 -25 -20z"/>
<path d="M4665 1500 c3 -5 8 -10 11 -10 2 0 4 5 4 10 0 6 -5 10 -11 10 -5 0
-7 -4 -4 -10z"/>
<path d="M3493 1484 c9 -11 17 -25 17 -31 0 -14 -31 -39 -60 -48 -13 -4 -31
-15 -39 -23 -14 -14 -13 -15 9 -10 14 3 33 9 42 13 13 5 15 2 11 -13 -9 -37
86 -75 100 -39 6 17 -46 125 -74 151 -23 21 -23 21 -6 0z m53 -100 c13 -30 13
-38 2 -45 -7 -5 -19 -7 -26 -4 -8 3 -17 5 -22 5 -12 0 -18 58 -6 70 19 19 37
10 52 -26z"/>
<path d="M4141 1474 c0 -11 3 -14 6 -6 3 7 2 16 -1 19 -3 4 -6 -2 -5 -13z"/>
<path d="M4776 1461 c-3 -4 6 -6 19 -3 14 2 25 6 25 8 0 8 -39 4 -44 -5z"/>
<path d="M588 1443 c7 -3 16 -2 19 1 4 3 -2 6 -13 5 -11 0 -14 -3 -6 -6z"/>
<path d="M4132 1425 c0 -16 2 -22 5 -12 2 9 2 23 0 30 -3 6 -5 -1 -5 -18z"/>
<path d="M4815 1440 c3 -5 8 -10 11 -10 2 0 4 5 4 10 0 6 -5 10 -11 10 -5 0
-7 -4 -4 -10z"/>
<path d="M2956 1400 c-77 -45 -240 -169 -232 -177 3 -3 33 17 68 44 72 56 160
118 215 150 21 13 33 23 28 23 -6 0 -41 -18 -79 -40z"/>
<path d="M4111 1345 c-1 -11 -4 -31 -7 -45 -5 -22 -4 -23 6 -7 6 10 9 30 7 45
-3 18 -5 20 -6 7z"/>
<path d="M2325 1330 c3 -5 15 -10 26 -10 16 0 18 -5 13 -27 -9 -37 -7 -36 -50
-24 -72 20 -44 4 48 -28 117 -40 121 -43 129 -72 9 -32 11 -109 3 -148 -6 -27
-11 -31 -38 -31 -36 -1 -98 -29 -104 -48 -2 -8 9 -5 30 7 19 12 39 17 46 12 8
-5 0 -14 -25 -27 -47 -25 -138 -133 -178 -210 l-30 -59 -5 100 c-3 55 -8 105
-12 111 -14 22 -47 23 -53 3 -4 -13 -16 -19 -36 -19 -19 0 -29 -5 -29 -15 0
-16 34 -38 44 -28 4 4 6 -9 4 -30 -2 -41 -14 -49 -21 -14 -3 20 -4 20 -11 4
-6 -12 -3 -22 8 -30 10 -7 18 -21 20 -32 2 -11 7 -20 13 -20 5 0 18 -9 29 -19
15 -16 16 -19 2 -14 -22 9 -29 -1 -18 -22 13 -23 -13 -35 -31 -14 -7 8 -18 13
-26 10 -7 -3 -23 -2 -36 3 -26 10 -78 60 -73 70 3 4 -8 12 -23 19 -41 18 -161
184 -218 303 -49 101 -108 257 -101 265 3 2 31 -1 64 -6 32 -6 93 -10 134 -10
203 0 475 -41 604 -90 16 -6 25 -6 21 0 -12 20 -251 82 -365 94 -30 4 -134 11
-230 16 -96 5 -192 13 -214 16 l-38 7 7 -34 c10 -46 70 -200 107 -274 41 -81
92 -160 140 -217 23 -29 34 -48 25 -48 -11 0 -12 -10 -4 -52 16 -91 22 -99 64
-95 35 3 38 5 35 32 -3 28 -3 29 16 12 10 -9 24 -17 30 -17 18 0 15 -20 -3
-21 -17 -2 -24 -3 -45 -12 -8 -3 -32 -11 -52 -17 -39 -12 -50 -36 -22 -47 15
-6 15 -7 1 -18 -23 -17 -6 -37 39 -45 33 -7 29 -8 -25 -7 -42 0 -66 -4 -69
-11 -2 -7 -16 -12 -32 -12 -16 0 -30 -4 -32 -8 -5 -13 -117 -62 -142 -62 -15
0 -17 -3 -8 -9 9 -5 1 -10 -26 -14 -21 -4 -51 -16 -65 -27 -14 -11 -33 -20
-43 -20 -13 0 -15 -3 -7 -11 13 -13 441 6 504 21 24 6 12 8 -43 5 -43 -2 -78
-3 -78 -1 0 2 21 16 48 32 26 15 63 42 83 60 20 17 45 35 55 38 13 4 19 16 20
36 1 16 -2 30 -6 30 -3 0 -21 -16 -39 -36 -39 -45 -102 -96 -109 -89 -3 3 3
14 13 25 16 17 16 20 2 20 -9 0 -19 4 -22 10 -4 7 2 7 18 1 25 -10 67 -4 67 8
0 4 -5 12 -11 18 -7 7 -1 14 20 23 47 19 38 33 -16 27 -33 -4 -40 -3 -23 3 33
11 112 12 128 1 11 -6 10 -16 -4 -52 -9 -24 -21 -48 -26 -54 -4 -5 -8 -20 -8
-33 0 -13 -4 -31 -9 -41 -5 -9 -11 -35 -13 -57 -2 -21 -7 -43 -11 -49 -4 -5
-13 -18 -20 -27 -17 -25 -181 -48 -347 -48 -154 0 -173 7 -184 65 -4 20 -11
33 -17 30 -5 -4 -7 -10 -5 -14 3 -4 -29 9 -70 30 -48 23 -81 47 -89 63 -8 14
-11 26 -7 26 19 1 -35 30 -55 30 -13 0 -23 5 -23 11 0 8 -16 10 -47 6 -36 -4
-53 -1 -68 11 -18 15 -18 15 -7 1 11 -15 7 -19 -34 -33 -62 -21 -89 -20 -44 2
19 9 33 21 32 26 -2 5 2 13 10 18 10 8 9 9 -4 5 -30 -10 -29 7 2 19 30 13 48
39 36 51 -4 4 -13 -3 -21 -14 -8 -12 -29 -24 -45 -28 -17 -4 -30 -12 -30 -20
0 -15 -53 -28 -58 -14 -2 6 -19 -2 -37 -16 -22 -16 -46 -25 -71 -25 -21 0 -34
-3 -30 -8 8 -8 14 -9 48 -11 17 -1 19 -4 10 -13 -9 -9 -18 -9 -37 0 -35 16
-41 15 -63 -8 -11 -12 -32 -22 -48 -23 -16 -1 -31 -4 -34 -7 -3 -3 -27 -16
-55 -30 -34 -17 -51 -33 -55 -50 -7 -29 -45 -40 -63 -17 -7 8 -23 18 -37 22
-17 4 -21 3 -11 -3 11 -8 10 -12 -6 -21 -11 -5 -23 -7 -27 -4 -3 3 -6 1 -6 -6
0 -8 -6 -11 -17 -7 -10 4 -14 4 -10 0 3 -4 -1 -20 -11 -36 -17 -29 -16 -30 7
-49 23 -19 138 -89 146 -89 1 0 8 13 13 29 13 36 52 49 52 18 1 -33 24 -59 46
-51 11 4 16 3 11 -1 -4 -5 -26 -12 -50 -16 l-42 -7 53 1 c28 0 52 3 52 7 0 13
43 20 55 10 9 -7 17 2 28 31 14 37 18 39 37 29 12 -6 24 -18 27 -26 3 -8 9
-14 14 -14 15 0 10 22 -8 42 -16 18 -15 20 18 48 18 17 37 30 40 30 4 0 9 9
12 20 5 21 0 23 -58 21 -176 -6 -195 -11 -217 -61 -7 -16 -20 -30 -30 -30 -14
0 -15 5 -8 31 5 16 6 37 3 44 -3 9 3 17 13 21 11 3 28 10 39 15 16 7 14 7 -8
3 -27 -6 -38 8 -16 22 8 5 8 8 0 14 -14 8 90 50 122 49 18 0 15 -4 -13 -17
-40 -19 -65 -40 -57 -48 9 -10 284 -5 389 6 57 6 131 18 166 26 35 8 69 14 77
14 8 0 32 -35 55 -77 48 -91 67 -119 77 -110 4 4 1 13 -5 19 -16 16 -16 33 1
21 22 -18 55 -22 61 -7 3 8 0 14 -6 14 -6 0 -9 2 -6 5 3 3 13 2 22 -1 10 -4
13 -10 8 -13 -19 -12 274 -1 383 14 60 8 113 15 117 15 4 0 3 -11 -2 -24 -14
-37 -24 -154 -11 -136 5 8 7 18 5 22 -3 4 0 8 5 8 6 0 10 5 8 11 -1 6 3 13 10
16 8 3 9 -6 3 -31 -7 -32 -6 -36 12 -36 16 0 19 5 13 29 -9 43 7 45 48 6 24
-23 47 -35 65 -35 26 0 29 5 71 133 56 167 73 210 127 325 46 97 53 119 30 86
-14 -18 -15 -18 -21 -1 -8 20 -31 23 -38 4 -7 -19 13 -49 29 -43 11 4 11 0 -2
-19 -12 -19 -20 -23 -29 -15 -18 15 -45 1 -45 -22 0 -17 5 -19 25 -14 28 7 31
0 11 -26 -11 -15 -15 -16 -33 -3 -19 13 -22 13 -27 -1 -10 -27 -7 -32 19 -29
14 1 25 -3 25 -9 0 -24 -18 -37 -46 -34 -23 2 -29 -1 -29 -17 0 -11 6 -19 13
-17 8 1 11 -2 8 -7 -4 -5 0 -12 6 -15 7 -3 0 -3 -16 1 -18 4 -31 1 -37 -8 -13
-21 -11 -27 16 -41 18 -10 22 -17 15 -28 -5 -8 -10 -10 -10 -4 0 19 -38 23
-52 7 -10 -12 -9 -18 7 -29 11 -8 26 -12 33 -9 10 4 12 0 8 -11 -3 -8 -6 -20
-6 -26 0 -6 -9 -3 -20 7 -24 22 -50 13 -50 -19 0 -29 24 -41 41 -20 17 20 21
12 10 -19 -10 -25 -11 -26 -41 -10 -17 8 -40 13 -51 10 -10 -3 -16 -1 -13 4 3
5 -4 21 -15 35 -25 32 -26 44 -6 44 9 0 20 11 26 24 9 19 7 29 -6 50 -17 26
-17 28 4 50 24 25 27 46 9 65 -11 10 -9 14 5 22 12 7 17 20 15 39 -2 21 4 34
25 50 22 18 27 28 23 49 -7 30 -1 40 37 65 28 17 30 26 12 68 -5 13 -1 20 11
24 75 25 75 25 71 80 -4 48 -2 55 35 98 28 32 47 46 65 46 l26 0 -28 -22 c-37
-29 -76 -68 -67 -68 4 1 30 14 57 30 58 34 106 55 119 52 5 -2 6 4 3 13 -4 9
-1 15 7 15 8 0 20 -24 30 -58 20 -72 20 -76 0 -141 -14 -47 -17 -51 -28 -35
-12 16 -15 16 -47 -9 -33 -24 -79 -79 -79 -92 0 -4 8 -4 19 0 14 4 20 0 25
-17 14 -56 5 -106 -39 -206 -25 -56 -45 -108 -45 -115 0 -6 20 32 45 87 24 54
47 101 51 105 9 8 6 0 -38 -100 -20 -46 -39 -91 -41 -101 -4 -10 -22 -19 -46
-23 -46 -8 -46 -25 0 -25 26 0 29 -3 24 -20 -3 -11 -2 -20 4 -20 21 0 20 -38
-3 -86 -24 -48 -24 -49 -4 -52 12 -2 24 2 28 8 6 9 9 9 13 -1 5 -10 11 -8 24
10 34 47 60 148 83 324 7 48 16 89 20 92 8 5 4 -162 -5 -225 -4 -23 -2 -31 4
-25 6 6 16 98 22 205 7 114 17 205 25 220 14 27 14 44 -1 -231 -3 -65 -15
-141 -31 -200 -14 -51 -29 -113 -33 -136 -8 -40 -7 -43 13 -43 19 0 23 9 34
81 7 45 17 88 22 97 4 10 14 31 20 48 13 36 76 101 87 90 4 -3 2 -27 -5 -51
-7 -25 -12 -60 -13 -78 0 -17 -3 -26 -6 -19 -10 25 -31 11 -47 -31 -9 -23 -16
-46 -16 -50 0 -14 29 -7 39 10 21 35 10 0 -14 -48 -22 -45 -23 -49 -6 -49 10
0 23 10 29 23 l11 22 0 -22 c1 -31 21 -29 21 2 0 14 4 25 9 25 5 0 8 -11 5
-25 -5 -28 12 -35 20 -7 3 9 10 56 16 104 11 96 17 118 31 118 5 0 9 11 9 25
0 41 48 135 65 129 27 -11 14 -254 -21 -373 -5 -17 -4 -23 6 -19 9 3 19 36 27
89 22 140 26 157 31 132 2 -13 8 -23 13 -23 6 0 7 4 4 10 -3 5 -2 10 4 10 11
0 -5 57 -20 75 -12 12 -11 176 1 195 5 8 5 19 0 25 -5 6 -16 75 -24 153 -10
82 -23 157 -32 174 -9 18 -20 63 -25 102 -12 102 -18 119 -34 112 -15 -5 -102
20 -122 37 -7 5 -13 26 -13 46 0 21 -6 46 -14 57 -13 17 -13 15 -4 -21 16 -58
2 -199 -19 -191 -8 3 -23 6 -32 6 -15 0 -18 11 -18 83 -1 45 -6 94 -11 108 -6
15 -8 30 -5 33 4 3 30 6 60 6 l53 0 0 35 c0 49 -7 51 -248 80 -28 3 -41 2 -37
-5z m207 -34 c15 9 56 -9 61 -26 9 -37 -15 -42 -117 -29 -99 14 -107 19 -90
62 4 12 15 13 72 2 37 -7 70 -11 74 -9z m-62 -66 c24 -8 24 -8 -5 -9 -16 0
-37 4 -45 9 -12 8 -11 10 5 9 11 -1 31 -5 45 -9z m210 -178 c25 -8 46 -15 47
-16 1 -1 4 -13 8 -28 6 -25 5 -27 -39 -33 -52 -8 -96 0 -96 17 0 6 10 22 22
35 22 23 12 33 -10 11 -9 -9 -12 -6 -12 16 0 23 3 27 18 21 9 -4 37 -14 62
-23z m-80 -92 c8 -4 42 -4 75 0 33 4 62 6 64 4 7 -6 22 -171 17 -197 -3 -16
-19 -49 -36 -73 -41 -61 -62 -104 -52 -104 5 0 22 18 36 41 15 22 30 39 32 36
6 -6 -33 -75 -59 -104 -10 -12 -17 -28 -15 -35 3 -7 -4 -28 -14 -46 -23 -42
-24 -42 15 -42 44 0 51 9 24 30 l-22 18 23 31 c12 16 22 37 22 45 0 8 11 27
23 43 13 15 28 42 32 58 8 28 9 25 16 -29 8 -51 6 -62 -12 -87 -11 -16 -17
-29 -13 -29 4 0 -1 -9 -10 -19 -10 -11 -15 -24 -12 -29 3 -5 -1 -15 -9 -22 -8
-7 -15 -21 -15 -31 0 -11 -4 -19 -9 -19 -5 0 -12 -13 -16 -29 -5 -24 -12 -30
-42 -33 -29 -3 -32 -2 -19 8 15 10 15 15 -3 53 -14 32 -20 38 -25 25 -3 -9 -2
-22 3 -28 7 -8 6 -25 -1 -50 -9 -30 -13 -34 -18 -20 -4 11 -1 25 7 32 12 12
12 17 -1 31 -9 10 -12 22 -6 30 4 8 6 21 3 29 -5 10 -1 13 13 8 17 -5 19 0 20
52 1 41 18 107 63 241 33 101 61 185 61 187 0 13 -19 0 -28 -18 l-11 -23 0 23
c-2 45 -18 20 -34 -50 -44 -203 -50 -236 -55 -272 l-4 -40 -18 37 c-18 36 -18
38 6 87 16 34 23 63 21 87 -3 23 5 59 20 96 13 33 22 66 19 73 -7 17 -29 19
-23 2 2 -7 -2 -26 -10 -42 -23 -45 -43 -120 -37 -138 3 -10 1 -26 -5 -35 -17
-29 -14 44 4 105 9 29 13 57 10 62 -3 6 -1 10 5 10 12 0 -20 49 -33 50 -5 0
-5 -4 -2 -10 7 -11 -9 -13 -42 -4 -14 4 -23 14 -23 26 0 18 4 19 43 13 23 -4
49 -11 57 -15z m-40 -60 c0 -5 -4 -10 -10 -10 -5 0 -10 5 -10 10 0 6 5 10 10
10 6 0 10 -4 10 -10z m240 -154 c0 -39 -6 -30 -13 19 -4 27 -3 35 3 25 5 -8
10 -28 10 -44z m-296 -187 c-65 -135 -84 -155 -26 -28 21 46 47 108 58 138 14
42 20 49 22 32 2 -14 -21 -74 -54 -142z m303 79 c-2 -13 -4 -5 -4 17 -1 22 1
32 4 23 2 -10 2 -28 0 -40z m-230 20 c-3 -8 -6 -5 -6 6 -1 11 2 17 5 13 3 -3
4 -12 1 -19z m-141 -48 c0 -20 -7 -25 -19 -13 -4 3 -2 12 4 20 15 17 15 17 15
-7z m387 -55 c4 -32 3 -43 -3 -30 -8 19 -14 93 -6 84 2 -2 6 -26 9 -54z m-342
22 c-10 -9 -11 -8 -5 6 3 10 9 15 12 12 3 -3 0 -11 -7 -18z m-341 -6 c0 -28
-8 -30 -78 -24 -41 4 -62 10 -62 19 0 16 14 20 83 23 51 2 57 0 57 -18z m444
-42 c-1 -23 -6 -45 -11 -50 -4 -4 -6 19 -5 53 2 34 7 56 11 50 4 -7 6 -30 5
-53z m-636 31 c-14 -4 -32 -11 -40 -15 -7 -3 -4 1 6 9 11 9 29 16 40 15 17 -1
16 -2 -6 -9z m510 -46 c-7 -15 -14 -21 -16 -15 -5 16 5 41 17 41 7 0 6 -10 -1
-26z m352 -16 c0 -21 -31 -88 -41 -88 -4 0 -10 -13 -14 -30 -9 -40 -30 -53
-22 -14 14 68 21 90 35 100 8 6 12 16 8 22 -4 6 -2 21 5 33 9 17 13 19 20 8 5
-8 9 -22 9 -31z m-323 -30 c-3 -8 -6 -5 -6 6 -1 11 2 17 5 13 3 -3 4 -12 1
-19z m-604 -35 c-7 -2 -19 -2 -25 0 -7 3 -2 5 12 5 14 0 19 -2 13 -5z m581
-30 c-13 -76 -56 -238 -65 -248 -6 -6 -6 1 0 18 6 16 11 38 11 50 -1 22 -1 22
-15 3 -14 -19 -15 -19 -15 7 0 14 12 52 26 84 14 32 32 73 40 91 19 43 26 41
18 -5z m352 0 c-11 -11 -17 4 -9 23 7 18 8 18 11 1 2 -10 1 -21 -2 -24z
m-1801 7 c-3 -5 -18 -10 -33 -9 l-27 1 25 8 c35 11 42 11 35 0z m825 -7 c0 -5
-14 -8 -30 -9 -17 -1 -30 3 -30 7 0 5 14 9 30 9 17 0 30 -3 30 -7z m43 -5
c-27 -13 -31 -33 -5 -23 11 4 14 3 7 -4 -5 -5 -26 -11 -45 -13 -29 -2 -35 -7
-33 -24 2 -20 -4 -22 -89 -26 -50 -3 -102 -2 -117 2 l-26 7 26 8 c15 3 35 6
45 5 11 -1 30 -1 44 0 23 1 23 2 5 10 -15 6 -6 9 32 9 30 1 57 7 66 15 7 8 25
16 38 18 13 2 23 9 22 16 -2 7 8 12 25 11 27 0 27 -1 5 -11z m-929 -13 c14
-11 16 -15 5 -15 -8 0 -31 -3 -51 -6 -42 -7 -51 7 -15 24 30 14 39 14 61 -3z
m241 5 c-3 -5 -15 -10 -26 -10 -10 0 -19 -5 -19 -10 0 -6 22 -8 58 -5 38 4 50
2 37 -4 -19 -8 -18 -9 8 -16 15 -4 27 -11 27 -16 0 -17 -32 -22 -41 -8 -7 12
-12 12 -29 1 -12 -7 -30 -10 -41 -7 -10 4 -33 7 -50 7 -16 1 -26 4 -21 7 5 3
11 15 13 26 4 21 42 45 72 45 10 0 15 -4 12 -10z m552 -16 c-3 -3 -12 -4 -19
-1 -8 3 -5 6 6 6 11 1 17 -2 13 -5z m-677 -24 c-12 -22 -15 -23 -114 -24 -64
-1 -70 -3 -95 -33 -15 -18 -36 -33 -46 -33 -18 0 -18 1 2 15 13 9 20 22 17 30
-4 10 0 15 11 15 10 0 23 7 29 15 8 11 36 16 99 19 49 2 91 7 94 10 12 12 13
6 3 -14z m1640 -25 c0 -8 -4 -15 -10 -15 -5 0 -10 7 -10 15 0 8 5 15 10 15 6
0 10 -7 10 -15z m-1903 -1 c-3 -3 -12 -4 -19 -1 -8 3 -5 6 6 6 11 1 17 -2 13
-5z m13 -24 c0 -5 -5 -10 -11 -10 -5 0 -7 5 -4 10 3 6 8 10 11 10 2 0 4 -4 4
-10z m240 -4 c-14 -7 -39 -16 -57 -19 -25 -5 -31 -3 -27 8 3 7 11 12 18 9 7
-3 23 0 37 5 36 14 58 12 29 -3z m-121 -5 c11 -7 10 -11 -7 -20 -23 -12 -52
-15 -52 -5 0 7 31 33 40 34 3 0 11 -4 19 -9z m178 -7 c-3 -3 -12 -4 -19 -1 -8
3 -5 6 6 6 11 1 17 -2 13 -5z m1580 -41 c-3 -10 -5 -2 -5 17 0 19 2 27 5 18 2
-10 2 -26 0 -35z m-330 -55 c-3 -8 -6 -5 -6 6 -1 11 2 17 5 13 3 -3 4 -12 1
-19z m314 -29 l-10 -24 0 26 c-1 14 2 29 6 33 12 12 14 -9 4 -35z m-1820 17
c-10 -12 -61 -11 -61 1 0 3 11 3 25 1 14 -3 28 -1 31 3 3 5 8 9 11 9 3 0 0 -6
-6 -14z m1160 -32 c-5 -16 -10 -21 -10 -12 -1 18 10 51 15 45 2 -1 -1 -16 -5
-33z m-1201 2 c0 -2 -12 -12 -27 -21 l-28 -18 19 21 c17 20 36 29 36 18z m-85
-58 c-15 -21 -16 -21 -13 -3 2 11 7 23 13 27 17 12 17 0 0 -24z m1272 0 c-3
-8 -6 -5 -6 6 -1 11 2 17 5 13 3 -3 4 -12 1 -19z"/>
<path d="M3030 1261 l0 -73 -37 7 c-44 8 -193 9 -201 1 -3 -3 -11 -1 -17 4
-10 8 -16 2 -24 -22 -22 -64 -75 -92 -85 -45 -3 12 -7 31 -9 42 -3 11 -5 1 -6
-23 -1 -36 3 -44 22 -51 31 -12 58 1 85 40 13 19 29 37 35 41 13 7 73 10 147
9 l45 -1 0 -194 c0 -107 -3 -198 -7 -202 -5 -4 -8 -16 -8 -26 0 -10 -4 -18
-10 -18 -5 0 -10 -13 -10 -30 0 -32 -9 -37 -28 -18 -15 15 -16 48 -1 48 5 0 7
4 4 10 -3 5 2 21 11 35 25 38 10 41 -17 4 -13 -19 -22 -45 -21 -63 3 -67 14
-136 22 -136 4 0 6 19 3 41 -5 38 -4 41 14 35 11 -4 31 -2 44 3 l24 9 -3 -82
c-3 -113 -8 -128 -35 -124 -15 2 -25 14 -33 36 -5 18 -13 30 -16 26 -17 -16
34 -84 63 -84 24 0 33 16 39 75 l5 50 21 -83 c24 -98 29 -90 -93 -151 -46 -23
-83 -46 -83 -51 0 -16 14 -12 33 10 9 11 28 20 42 20 14 0 25 3 25 8 0 4 20
18 44 30 45 24 106 79 74 67 -13 -5 -18 7 -31 67 -28 135 -35 193 -26 210 12
22 12 78 0 78 -13 0 -20 38 -26 132 -3 46 -7 101 -10 123 -3 28 -2 34 4 20 l9
-20 7 20 c3 11 16 44 27 73 16 42 19 67 15 114 -8 92 -27 98 -27 9z m5 -91 c3
-5 -3 -10 -14 -10 -12 0 -21 5 -21 10 0 6 6 10 14 10 8 0 18 -4 21 -10z m-15
-40 c0 -5 -4 -10 -10 -10 -5 0 -10 5 -10 10 0 6 5 10 10 10 6 0 10 -4 10 -10z
m-24 -425 c-3 -8 -10 -15 -17 -15 -7 0 -8 7 -3 18 4 9 7 33 7 52 l-1 35 10
-38 c6 -20 7 -44 4 -52z"/>
<path d="M4680 1285 c0 -5 5 -17 10 -25 5 -8 10 -10 10 -5 0 6 -5 17 -10 25
-5 8 -10 11 -10 5z"/>
<path d="M315 1260 c-19 -8 -19 -9 2 -9 12 -1 25 4 28 9 7 12 -2 12 -30 0z"/>
<path d="M368 1263 c7 -3 16 -2 19 1 4 3 -2 6 -13 5 -11 0 -14 -3 -6 -6z"/>
<path d="M2707 1244 c-3 -3 -23 -12 -44 -19 -33 -12 -35 -14 -12 -15 22 0 88
39 68 40 -3 0 -8 -3 -12 -6z"/>
<path d="M4706 1215 c4 -16 11 -37 15 -45 6 -10 7 -4 3 15 -4 17 -11 37 -15
45 -6 10 -7 4 -3 -15z"/>
<path d="M485 1220 c11 -5 34 -8 50 -8 29 0 29 0 5 8 -14 4 -36 8 -50 8 -23 1
-23 0 -5 -8z"/>
<path d="M1963 1163 c-62 -3 -73 -7 -73 -22 0 -10 16 -32 35 -50 19 -17 52
-56 72 -86 20 -30 37 -55 39 -55 14 0 -43 94 -87 145 -17 19 -29 38 -27 41 8
8 309 9 363 1 36 -5 44 -4 27 3 -24 10 -221 32 -257 28 -11 -1 -53 -4 -92 -5z"/>
<path d="M2801 1135 c-14 -40 -14 -45 3 -45 17 0 56 46 56 66 0 8 -9 13 -24
12 -16 -2 -27 -11 -35 -33z"/>
<path d="M2926 1115 c-11 -19 -16 -38 -13 -42 11 -10 57 38 57 59 0 30 -24 21
-44 -17z"/>
<path d="M4734 1135 c21 -70 75 -218 75 -209 1 13 -67 215 -75 223 -4 3 -4 -3
0 -14z"/>
<path d="M2438 1108 c5 -5 16 -8 23 -6 8 3 3 7 -10 11 -17 4 -21 3 -13 -5z"/>
<path d="M935 1068 c-46 -26 -114 -90 -117 -111 -2 -15 -26 -36 -76 -66 -40
-24 -75 -42 -78 -39 -2 3 12 15 32 27 20 12 34 25 30 28 -3 3 -14 -1 -23 -9
-10 -9 -27 -18 -38 -20 -21 -3 -35 -48 -15 -48 29 0 171 85 230 138 23 20 25
21 29 5 2 -10 8 -21 15 -26 16 -10 -80 -98 -138 -127 -26 -12 -67 -25 -91 -28
-41 -4 -44 -3 -61 29 -9 19 -19 29 -21 22 -2 -7 1 -22 8 -35 12 -22 11 -22 -6
-8 -16 13 -18 13 -13 0 2 -8 23 -19 45 -25 l41 -10 -29 -58 -29 -57 -30 21
c-33 25 -52 21 -76 -16 -14 -22 -16 -33 -7 -55 10 -27 9 -29 -31 -44 -54 -21
-96 -58 -96 -85 0 -11 5 -21 10 -21 6 0 10 6 10 13 0 27 54 61 145 92 20 7 19
7 -2 22 -40 27 -26 93 19 93 32 0 41 -45 17 -91 -11 -23 -18 -43 -16 -45 5 -5
85 128 116 192 15 29 31 43 80 65 l61 28 1 -97 c1 -53 5 -110 9 -127 6 -19 8
17 8 100 l-1 130 46 48 c49 49 55 65 35 96 -9 15 -7 25 11 55 24 39 39 50 21
15 -7 -11 -9 -23 -7 -26 3 -3 12 8 21 24 18 34 19 29 5 -37 -6 -27 -15 -48
-20 -44 -5 3 -9 0 -9 -6 0 -11 28 -26 35 -18 3 3 10 31 16 62 14 78 -10 106
-66 74z m-47 -68 c-13 -21 -28 -27 -28 -10 0 5 8 14 18 19 23 14 24 14 10 -9z"/>
<path d="M4520 1038 c-31 -99 -98 -204 -117 -184 -4 3 3 27 15 51 28 58 28 68
0 60 -37 -11 -69 -35 -62 -46 4 -7 10 -7 17 0 20 20 26 12 15 -19 -20 -59 35
-83 73 -31 12 16 27 27 34 25 8 -4 20 21 34 73 13 43 25 86 28 96 3 11 0 17
-9 17 -9 0 -21 -18 -28 -42z"/>
<path d="M2760 1062 c0 -4 18 -6 40 -4 22 2 40 6 40 8 0 2 -18 4 -40 4 -22 0
-40 -3 -40 -8z"/>
<path d="M397 1034 c-12 -13 -7 -52 7 -57 8 -3 20 1 27 9 10 12 9 19 -7 35
-11 11 -23 16 -27 13z"/>
<path d="M500 1026 c0 -21 21 -31 30 -15 5 7 6 17 4 21 -9 14 -34 9 -34 -6z"/>
<path d="M800 1000 c0 -5 5 -10 11 -10 5 0 7 5 4 10 -3 6 -8 10 -11 10 -2 0
-4 -4 -4 -10z"/>
<path d="M85 990 c-3 -5 -2 -10 4 -10 5 0 13 5 16 10 3 6 2 10 -4 10 -5 0 -13
-4 -16 -10z"/>
<path d="M4672 969 c-50 -28 -72 -53 -59 -66 10 -10 65 18 102 51 60 55 39 63
-43 15z"/>
<path d="M1265 945 c-62 -18 -123 -53 -135 -76 -14 -26 6 -52 63 -80 95 -49
93 -78 -7 -134 -50 -28 -69 -34 -87 -27 -13 5 -33 6 -44 1 -18 -7 -17 -8 7 -8
15 -1 30 -6 33 -12 4 -6 13 -8 21 -5 9 4 14 -2 14 -15 0 -11 -7 -22 -15 -25
-16 -7 -21 -24 -6 -24 19 0 42 33 37 54 -4 17 5 26 52 52 31 17 64 42 72 57
13 23 13 28 -5 47 -10 11 -45 37 -77 56 -51 31 -57 38 -48 55 9 16 78 59 96
59 3 0 4 -7 0 -15 -3 -9 8 -31 29 -53 19 -21 38 -49 43 -63 14 -36 -11 -88
-59 -124 -22 -16 -35 -31 -29 -33 16 -6 78 45 95 78 25 47 19 76 -25 124 -22
24 -40 51 -40 59 0 9 16 25 36 35 46 23 33 34 -21 17z"/>
<path d="M735 930 c3 -5 8 -10 11 -10 2 0 4 5 4 10 0 6 -5 10 -11 10 -5 0 -7
-4 -4 -10z"/>
<path d="M851 921 c-17 -13 -20 -20 -11 -26 14 -8 44 18 39 34 -3 6 -14 3 -28
-8z"/>
<path d="M2054 884 c-18 -14 -18 -15 4 -4 12 6 22 13 22 15 0 8 -5 6 -26 -11z"/>
<path d="M4821 870 c0 -8 4 -22 9 -30 12 -18 12 -2 0 25 -6 13 -9 15 -9 5z"/>
<path d="M4537 810 c-29 -39 -36 -56 -31 -75 12 -49 67 -59 111 -20 l28 26
-43 -22 c-32 -16 -46 -19 -55 -10 -8 8 -7 11 5 11 9 0 19 12 23 27 3 15 14 44
24 64 11 21 16 40 13 43 -16 16 -42 1 -75 -44z"/>
<path d="M695 825 l-30 -24 27 -1 c15 0 40 11 55 25 l28 24 -25 1 c-14 0 -38
-11 -55 -25z"/>
<path d="M1976 834 c-11 -8 -16 -14 -10 -14 13 0 39 18 34 24 -3 2 -14 -2 -24
-10z"/>
<path d="M2030 835 c0 -8 5 -15 10 -15 6 0 10 7 10 15 0 8 -4 15 -10 15 -5 0
-10 -7 -10 -15z"/>
<path d="M4841 810 c0 -8 4 -24 9 -35 5 -13 9 -14 9 -5 0 8 -4 24 -9 35 -5 13
-9 14 -9 5z"/>
<path d="M2417 769 c-3 -11 -15 -23 -26 -26 -22 -6 -26 -19 -12 -41 6 -10 10
-10 20 2 7 8 10 20 6 26 -3 5 -2 10 4 10 14 0 33 38 22 44 -5 3 -11 -4 -14
-15z"/>
<path d="M958 711 c-64 -41 -108 -91 -79 -91 5 0 11 9 14 19 5 21 101 81 130
81 22 0 22 -12 -3 -60 -25 -49 -25 -58 0 -35 23 21 44 80 36 100 -9 23 -48 18
-98 -14z"/>
<path d="M4762 702 c-5 -16 -17 -29 -26 -29 -20 0 -158 -64 -168 -78 -4 -5 -8
-14 -8 -20 1 -5 7 -2 15 8 10 14 18 16 30 9 10 -5 34 -6 55 -2 75 14 91 -31
18 -50 -21 -6 -48 -8 -58 -5 -22 7 -90 -14 -90 -27 0 -17 45 -25 84 -16 23 5
60 18 83 28 34 15 43 24 43 44 0 27 -24 46 -62 47 -18 0 -15 4 17 18 27 13 44
15 52 9 10 -8 18 1 32 33 10 24 17 47 14 52 -9 15 -21 6 -31 -21z"/>
<path d="M2014 700 c0 -10 8 -21 18 -23 14 -4 16 -2 8 13 -15 27 -26 31 -26
10z"/>
<path d="M2346 635 c3 -7 1 -23 -6 -34 -8 -17 -8 -21 3 -21 22 0 47 33 37 50
-11 18 -40 22 -34 5z"/>
<path d="M706 595 c-3 -9 -6 -32 -6 -50 0 -19 -4 -45 -10 -59 -7 -20 -6 -24 5
-20 16 7 28 54 27 103 -2 40 -7 48 -16 26z"/>
<path d="M908 535 c-45 -24 -69 -45 -51 -45 5 0 18 7 29 15 10 8 40 17 66 21
40 5 45 9 33 20 -18 18 -21 18 -77 -11z"/>
<path d="M1025 540 c3 -5 8 -10 11 -10 2 0 4 5 4 10 0 6 -5 10 -11 10 -5 0 -7
-4 -4 -10z"/>
<path d="M4891 465 c-1 -17 6 -55 15 -85 9 -33 18 -120 22 -220 5 -136 7 -154
13 -105 8 68 3 253 -8 281 -4 10 -14 50 -24 89 -11 47 -17 60 -18 40z"/>
<path d="M746 441 c-8 -13 7 -46 22 -49 9 -2 9 4 -3 21 -8 13 -12 27 -8 30 3
4 4 7 0 7 -3 0 -8 -4 -11 -9z"/>
<path d="M285 421 c-42 -26 -78 -67 -70 -80 3 -6 26 -20 50 -31 35 -16 56 -19
107 -14 62 7 92 19 83 34 -3 5 -20 3 -39 -2 -26 -8 -40 -7 -65 5 -31 15 -32
15 -26 -4 4 -13 2 -19 -9 -19 -24 0 -46 11 -40 21 3 5 -2 9 -10 9 -31 0 -17
39 24 66 22 15 40 28 40 30 0 8 -17 3 -45 -15z"/>
<path d="M456 429 c6 -11 61 -12 67 -1 3 4 -13 8 -34 8 -21 1 -36 -2 -33 -7z"/>
<path d="M645 410 c-33 -17 -60 -36 -60 -43 0 -6 -15 -14 -33 -17 -18 -3 -31
-9 -30 -15 4 -13 47 -7 74 10 28 18 116 43 132 38 6 -3 12 -2 12 1 0 11 -23
56 -29 56 -3 0 -33 -14 -66 -30z m65 0 c0 -5 -10 -10 -22 -9 -22 0 -22 1 -3 9
11 5 21 9 23 9 1 1 2 -3 2 -9z"/>
<path d="M400 420 c20 -13 43 -13 35 0 -3 6 -16 10 -28 10 -18 0 -19 -2 -7
-10z"/>
<path d="M4584 415 c-10 -8 -14 -15 -8 -15 6 0 17 7 24 15 16 19 9 19 -16 0z"/>
<path d="M3120 393 c-33 -5 -103 -35 -112 -47 -4 -6 -1 -17 7 -26 7 -8 13 -19
12 -24 -1 -5 8 -13 21 -17 15 -6 21 -5 17 1 -12 20 5 29 31 18 20 -10 27 -9
35 3 7 12 9 12 9 0 0 -8 3 -11 6 -8 4 4 1 13 -5 21 -10 12 -8 19 9 36 27 27
18 40 -10 15 -24 -22 -27 -9 -3 17 9 10 14 17 12 17 -2 -1 -15 -4 -29 -6z
m-65 -53 c3 -5 1 -10 -4 -10 -6 0 -11 5 -11 10 0 6 2 10 4 10 3 0 8 -4 11 -10z"/>
<path d="M677 363 c-4 -3 -7 -11 -7 -17 0 -6 5 -5 12 2 6 6 9 14 7 17 -3 3 -9
2 -12 -2z"/>
<path d="M3163 353 c-20 -7 -15 -19 7 -20 11 -1 20 2 20 7 0 12 -13 18 -27 13z"/>
<path d="M626 335 c-3 -8 -1 -15 4 -15 6 0 10 7 10 15 0 8 -2 15 -4 15 -2 0
-6 -7 -10 -15z"/>
<path d="M4411 250 c0 -36 3 -71 8 -79 5 -8 7 13 4 55 -6 93 -11 103 -12 24z"/>
<path d="M3202 274 c8 -7 -94 -74 -147 -98 -45 -20 -88 -29 -80 -16 3 5 0 10
-8 10 -10 0 -13 -7 -10 -20 3 -12 -1 -22 -11 -26 -9 -3 -16 -11 -16 -17 0 -6
3 -7 7 -4 3 4 16 1 29 -7 16 -11 31 -13 55 -6 19 4 52 11 74 14 l40 6 -37 -20
c-64 -34 -41 -66 28 -40 17 7 31 7 37 1 11 -11 39 -3 32 9 -6 10 54 32 67 24
6 -4 8 1 4 13 -4 14 2 25 24 41 39 29 49 28 20 -3 -13 -14 -21 -28 -18 -31 9
-9 48 19 54 39 10 31 -9 39 -54 25 -32 -10 -42 -18 -44 -38 -2 -16 -10 -26
-23 -28 -18 -2 -18 -1 -4 10 14 9 15 16 6 37 -6 14 -12 27 -13 29 -1 2 -11 -1
-23 -7 -31 -17 -39 8 -10 30 13 10 20 19 14 19 -5 0 1 7 13 16 26 18 28 30 5
38 -10 4 -14 4 -11 0z m-56 -108 c8 -8 11 -22 8 -30 -9 -23 5 -20 27 7 14 16
17 17 13 5 -4 -11 -1 -18 6 -18 6 0 9 -4 6 -9 -8 -12 -208 -12 -204 1 3 8 98
51 126 57 2 1 10 -5 18 -13z m0 -85 c-3 -5 -20 -14 -36 -20 -35 -12 -32 5 4
19 28 12 38 12 32 1z"/>
<path d="M3015 260 c-3 -5 1 -10 9 -10 9 0 16 5 16 10 0 6 -4 10 -9 10 -6 0
-13 -4 -16 -10z"/>
<path d="M3055 250 c-3 -6 1 -13 10 -16 19 -8 30 0 20 15 -8 14 -22 14 -30 1z"/>
<path d="M2750 218 c-11 -18 -19 -46 -18 -63 1 -16 -4 -40 -10 -52 -8 -14 -9
-24 -2 -28 6 -4 13 7 16 24 4 17 10 31 15 31 14 0 39 57 39 90 0 39 -15 38
-40 -2z m30 -6 c0 -5 -7 -17 -16 -28 -8 -10 -14 -14 -11 -9 2 6 7 18 10 28 7
17 17 23 17 9z"/>
<path d="M1090 229 c0 -7 10 -9 23 -6 12 3 30 0 41 -8 18 -13 18 -15 -4 -44
-25 -36 -66 -43 -57 -11 7 26 -10 26 -18 0 -12 -38 -14 -100 -4 -100 6 0 13 9
16 20 6 23 16 25 44 9 12 -6 28 -7 37 -4 13 6 9 10 -18 20 -29 11 -32 14 -17
20 10 4 29 24 42 44 l25 36 0 -37 c0 -20 4 -39 9 -43 9 -5 -12 -70 -28 -88 -4
-4 -47 -14 -97 -22 l-89 -14 161 2 c119 1 165 6 177 16 15 12 17 11 17 -3 0
-20 24 -21 40 -1 7 8 20 15 29 16 11 0 10 3 -6 11 -13 6 -23 15 -23 20 0 9
-51 4 -115 -12 -66 -16 -78 -14 -64 12 19 35 73 105 66 86 -4 -12 -1 -18 9
-18 11 0 13 -6 9 -20 -5 -15 -3 -18 9 -14 14 5 14 11 -5 43 -58 97 -62 99
-139 100 -44 0 -70 -4 -70 -10z m140 -40 c0 -5 5 -7 10 -4 14 9 12 -8 -4 -30
-12 -17 -14 -16 -18 13 -2 18 -1 32 4 32 4 0 8 -5 8 -11z"/>
<path d="M2881 196 c-18 -22 7 -56 41 -56 16 0 28 4 28 9 0 15 -18 23 -22 10
-2 -5 -11 -7 -21 -3 -14 5 -17 13 -13 30 7 27 3 30 -13 10z"/>
<path d="M915 190 c3 -5 8 -10 11 -10 2 0 4 5 4 10 0 6 -5 10 -11 10 -5 0 -7
-4 -4 -10z"/>
<path d="M2920 189 c0 -5 5 -7 10 -4 6 3 10 8 10 11 0 2 -4 4 -10 4 -5 0 -10
-5 -10 -11z"/>
<path d="M2481 154 c0 -11 3 -14 6 -6 3 7 2 16 -1 19 -3 4 -6 -2 -5 -13z"/>
<path d="M972 140 c-38 -23 -49 -45 -33 -64 6 -7 8 -16 5 -19 -4 -4 8 -2 27 3
18 5 40 17 49 26 14 15 13 16 -3 10 -42 -14 -67 -18 -67 -9 0 18 37 44 64 46
15 1 27 7 29 12 4 18 -38 16 -71 -5z"/>
<path d="M865 95 l-20 -40 32 -1 c22 0 33 4 33 13 0 8 -4 12 -9 8 -5 -3 -11 9
-13 27 l-3 33 -20 -40z"/>
<path d="M2462 103 c-21 -56 -32 -96 -28 -101 6 -5 32 56 41 97 8 38 1 41 -13
4z"/>
<path d="M3244 65 c-28 -12 -65 -45 -51 -45 4 0 25 10 48 22 39 20 43 20 54 5
8 -11 19 -15 29 -11 14 5 12 10 -14 25 -17 11 -31 19 -33 18 -1 0 -16 -7 -33
-14z"/>
<path d="M759 68 c-7 -25 -7 -48 1 -53 11 -7 40 18 40 33 0 11 -38 29 -41 20z"/>
<path d="M2862 25 c-10 -21 -9 -25 3 -25 9 0 15 10 15 25 0 14 -2 25 -3 25 -2
0 -9 -11 -15 -25z"/>
<path d="M2945 24 c-11 -17 -13 -25 -4 -22 16 5 44 48 31 48 -5 0 -17 -12 -27
-26z"/>
<path d="M3254 15 c-18 -13 -18 -14 4 -8 12 3 25 9 28 14 8 14 -10 11 -32 -6z"/>
<path d="M3320 14 c-24 -13 -23 -13 23 -12 42 2 46 4 31 15 -21 15 -22 15 -54
-3z"/>
<path d="M3145 10 c-3 -5 3 -10 15 -10 12 0 18 5 15 10 -3 6 -10 10 -15 10 -5
0 -12 -4 -15 -10z"/>
</g>
</svg>
